<svg width="210" height="60" viewBox="0 0 210 60" fill="none" xmlns="http://www.w3.org/2000/svg">
<g id="Logo">
<path id="Vector" d="M70.1441 38.1818V14.8473H66.3177V38.1818H70.1441Z" fill="white"/>
<path id="Vector_2" d="M72.486 30.4036C72.486 35.1709 75.6851 38.5582 80.5464 38.5582C85.4078 38.5582 88.6069 35.1709 88.6069 30.4036C88.6069 25.6364 85.4078 22.2491 80.5464 22.2491C75.6851 22.2491 72.486 25.6364 72.486 30.4036ZM76.3437 30.4036C76.3437 27.6123 78.006 25.6677 80.5464 25.6677C83.0869 25.6677 84.7491 27.6123 84.7491 30.4036C84.7491 33.1636 83.0869 35.1395 80.5464 35.1395C78.006 35.1395 76.3437 33.1636 76.3437 30.4036Z" fill="white"/>
<path id="Vector_3" d="M89.8939 30.09C89.8939 34.6063 92.8107 37.8682 97.1703 37.8682C99.4285 37.8682 101.373 36.9586 102.345 35.4532V38.0877C102.345 40.6282 100.746 42.3218 98.0798 42.3218C95.6962 42.3218 94.0653 41.1613 93.8457 39.1227H89.988C90.4898 43.1686 93.5948 45.8032 97.8603 45.8032C102.878 45.8032 106.078 42.51 106.078 37.3977V22.6882H102.69L102.471 24.7895C101.53 23.1586 99.5853 22.1863 97.2957 22.1863C92.8735 22.1863 89.8939 25.5422 89.8939 30.09ZM93.783 29.9959C93.783 27.4241 95.4139 25.5423 97.8289 25.5423C100.463 25.5423 102.22 27.4554 102.22 29.9959C102.22 32.5677 100.463 34.5436 97.8289 34.5436C95.4453 34.5436 93.783 32.5991 93.783 29.9959Z" fill="white"/>
<path id="Vector_4" d="M107.971 30.4036C107.971 35.1709 111.17 38.5582 116.032 38.5582C120.893 38.5582 124.092 35.1709 124.092 30.4036C124.092 25.6364 120.893 22.2491 116.032 22.2491C111.17 22.2491 107.971 25.6364 107.971 30.4036ZM111.829 30.4036C111.829 27.6123 113.491 25.6677 116.032 25.6677C118.572 25.6677 120.234 27.6123 120.234 30.4036C120.234 33.1636 118.572 35.1395 116.032 35.1395C113.491 35.1395 111.829 33.1636 111.829 30.4036Z" fill="white"/>
<path id="Vector_5" d="M128.233 19.5204C129.487 19.5204 130.522 18.5168 130.522 17.2309C130.522 15.9764 129.487 14.9727 128.233 14.9727C126.947 14.9727 125.975 15.9764 125.975 17.2309C125.975 18.5168 126.947 19.5204 128.233 19.5204ZM126.32 38.1818H130.146V22.6882H126.32V38.1818Z" fill="white"/>
<path id="Vector_6" d="M133.498 45.3641H137.231V36.0491C138.203 37.6486 140.305 38.5895 142.626 38.5895C147.205 38.5895 149.933 35.0768 149.87 30.2468C149.776 25.3854 146.985 22.2177 142.594 22.2177C140.242 22.2177 138.109 23.2527 137.168 25.0404L136.949 22.6882H133.498V45.3641ZM137.388 30.435C137.388 27.6436 139.081 25.6991 141.747 25.6991C144.413 25.6991 146.013 27.675 146.013 30.435C146.013 33.195 144.413 35.1395 141.747 35.1395C139.081 35.1395 137.388 33.2263 137.388 30.435Z" fill="white"/>
<path id="Vector_7" d="M150.841 33.54C150.967 36.6136 153.35 38.5895 157.051 38.5895C160.689 38.5895 163.167 36.645 163.167 33.6341C163.167 31.4073 161.787 29.9018 159.247 29.2745L156.518 28.6159C155.358 28.3023 154.574 27.8945 154.574 26.8909C154.574 25.8245 155.42 25.0718 156.8 25.0718C158.243 25.0718 159.184 25.8873 159.184 27.2359H162.665C162.54 24.1623 160.25 22.2177 156.894 22.2177C153.57 22.2177 151.092 24.1623 151.092 27.1104C151.092 29.1177 152.253 30.78 155.232 31.5641L157.929 32.2541C158.933 32.5363 159.56 33.0068 159.56 33.885C159.56 35.1082 158.4 35.6727 156.989 35.6727C155.295 35.6727 154.323 34.8886 154.323 33.54H150.841Z" fill="white"/>
<path id="Vector_8" d="M171.105 38.5895C173.206 38.5895 175.214 37.6173 176.123 36.1745L176.374 38.1818H179.95V22.6882H176.123V30.8114C176.123 33.6027 175.057 35.1709 172.548 35.1709C170.603 35.1709 169.255 34.23 169.255 31.0309V22.6882H165.428V32.3795C165.428 36.0804 167.435 38.5895 171.105 38.5895Z" fill="white"/>
<path id="Vector_9" d="M187.152 38.1818V29.2745C187.152 26.7654 188.626 25.5736 190.445 25.5736C192.265 25.5736 193.456 26.7341 193.456 28.9295V38.1818H197.189V29.3059C197.189 26.7654 198.631 25.5736 200.45 25.5736C202.301 25.5736 203.493 26.7341 203.493 28.9295V38.1818H207.194V28.0513C207.194 24.4759 205.218 22.2177 201.454 22.2177C199.102 22.2177 197.251 23.3468 196.499 25.1659C195.652 23.3468 193.958 22.2177 191.386 22.2177C189.567 22.2177 187.936 23.0645 187.027 24.4445L186.839 22.6882H183.326V38.1818H187.152Z" fill="white"/>
<path id="Vector_10" d="M177.979 52.0282C178.549 52.0282 179.044 51.5482 179.044 50.9782C179.044 50.3932 178.549 49.9132 177.979 49.9132C177.394 49.9132 176.899 50.3932 176.899 50.9782C176.899 51.5482 177.394 52.0282 177.979 52.0282Z" fill="#C6EACE"/>
<path id="Vector_11" d="M180.145 48.1582C180.145 50.4532 181.555 51.9982 183.61 51.9982C185.38 51.9982 186.73 50.9332 187.015 49.3432H185.665C185.41 50.2282 184.63 50.7532 183.7 50.7532C182.38 50.7532 181.54 49.7332 181.54 48.1432C181.54 46.5232 182.425 45.5332 183.73 45.5332C184.63 45.5332 185.41 46.0132 185.65 46.9582H187C186.76 45.3532 185.5 44.2732 183.745 44.2732C181.615 44.2732 180.145 45.8482 180.145 48.1582Z" fill="#C6EACE"/>
<path id="Vector_12" d="M187.546 48.1432C187.546 50.3482 189.046 51.9982 191.296 51.9982C193.546 51.9982 195.046 50.3482 195.046 48.1432C195.046 45.9382 193.546 44.2882 191.296 44.2882C189.046 44.2882 187.546 45.9382 187.546 48.1432ZM188.971 48.1432C188.971 46.6432 189.886 45.5482 191.296 45.5482C192.706 45.5482 193.621 46.6432 193.621 48.1432C193.621 49.6432 192.706 50.7382 191.296 50.7382C189.886 50.7382 188.971 49.6432 188.971 48.1432Z" fill="#C6EACE"/>
<path id="Vector_13" d="M197.66 51.8332V47.4232C197.66 46.2682 198.38 45.5182 199.43 45.5182C200.435 45.5182 201.065 46.1632 201.065 47.3182V51.8332H202.445V47.4382C202.445 46.2682 203.15 45.5182 204.215 45.5182C205.205 45.5182 205.835 46.1632 205.835 47.3182V51.8332H207.2V47.0182C207.2 45.3232 206.21 44.2882 204.53 44.2882C203.39 44.2882 202.505 44.8432 202.145 45.7432C201.77 44.8432 200.945 44.2882 199.745 44.2882C198.83 44.2882 198.02 44.7082 197.615 45.4282L197.51 44.4982H196.25V51.8332H197.66Z" fill="#C6EACE"/>
<path id="Vector_14" fill-rule="evenodd" clip-rule="evenodd" d="M2.72729 30.5936L2.72993 30.3203L2.73535 30.0469L2.74359 29.7735L2.75462 29.5001L2.76848 29.2267L2.78513 28.9533L2.8046 28.68L2.82687 28.4067L2.85196 28.1336L2.87986 27.8605L2.91057 27.5878L2.94407 27.315L2.9804 27.0426L3.01954 26.7704L3.06147 26.4985L3.10621 26.227L3.15376 25.9556L3.20409 25.6848L3.25723 25.4142L3.31317 25.1441L3.3719 24.8744L3.4334 24.6052L3.49771 24.3366L3.56477 24.0683L3.63463 23.8008L3.70725 23.5337L3.78264 23.2672L3.86079 23.0014L3.94169 22.7363L4.02534 22.4719L4.11174 22.2082L4.20088 21.9452L4.29275 21.6829L4.38733 21.4215L4.48464 21.1609L4.58465 20.9012L4.68737 20.6423L4.79278 20.3843L4.90088 20.1274L5.01164 19.8713L5.12509 19.6162L5.24119 19.3622L5.35993 19.1092L5.48132 18.8572L5.60534 18.6063L5.73199 18.3566L5.86123 18.108L5.99308 17.8605L6.12751 17.6144L6.26451 17.3693L6.40409 17.1255L6.54621 16.8831L6.69088 16.6418L6.83807 16.402L6.98779 16.1635L7.14 15.9263L7.2947 15.6907L7.45189 15.4563L7.61153 15.2235L7.77362 14.9921L7.93815 14.7622L8.10508 14.5339L8.27443 14.307L8.44617 14.0819L8.62029 13.8582L8.79676 13.6362L8.97557 13.4158L9.15672 13.1971L9.34017 12.9801L9.52592 12.7648L9.71395 12.5512L9.90424 12.3394L10.0968 12.1294L10.2915 11.9212L10.4885 11.7149L10.6877 11.5103L10.889 11.3077L11.0925 11.1069L11.2981 10.9081L11.5058 10.7112L11.7157 10.5163L11.9276 10.3233L12.1415 10.1324L12.3576 9.94348L12.5756 9.7566L12.7956 9.57179L13.0176 9.38908L13.2416 9.20847L13.4675 9.02998L13.6953 8.85364L13.9249 8.67947L14.1566 8.50748L14.3901 8.3377L14.6253 8.17015L14.8623 8.00484L15.1012 7.84179L15.3417 7.681L15.5841 7.52254L15.8282 7.36637L16.074 7.21255L16.3214 7.06108L16.5705 6.91197L16.8212 6.76525L17.0734 6.62094L17.3273 6.47904L17.5827 6.33958L17.8397 6.20256L18.0981 6.06803L18.358 5.93596L18.6194 5.8064L18.8822 5.67935L19.1464 5.55482L19.4119 5.43285L19.6789 5.31343L19.9472 5.19658L20.2167 5.08232L20.4876 4.97067L20.7596 4.86162L21.0329 4.75519L21.3074 4.65141L21.583 4.55027L21.8598 4.45182L22.1377 4.35602L22.4167 4.26291L22.6967 4.17252L22.9777 4.08482L23.2598 3.99985L23.5429 3.91763L23.8268 3.83814L24.1118 3.76139L24.3977 3.68742L24.6843 3.61622L24.9717 3.54782L25.2602 3.48219L25.5492 3.41938L25.839 3.35937L26.1296 3.30218L26.4209 3.24782L26.7128 3.19629L27.0055 3.14761L27.2987 3.10178L27.5924 3.05879L27.8867 3.01869L28.1815 2.98145L28.4768 2.94709L28.7726 2.91559L29.0688 2.887L29.3654 2.8613L29.6624 2.83849L29.9597 2.81859L31.5584 2.72729L31.6496 10.43L31.7018 10.4294L31.9226 10.4291L32.1434 10.431L32.3642 10.435L32.5852 10.4412L32.8061 10.4496L33.0272 10.4601L33.2482 10.4728L33.4692 10.4877L33.6902 10.5048L33.9112 10.524L34.132 10.5455L34.3527 10.5691L34.5732 10.5949L34.7938 10.6228L35.014 10.653L35.2341 10.6853L35.4539 10.7198L35.6736 10.7565L35.8928 10.7954L36.112 10.8364L36.3307 10.8796L36.549 10.925L36.7672 10.9725L36.9848 11.0222L37.2021 11.0741L37.419 11.1281L37.6354 11.1843L37.8513 11.2426L38.0667 11.3031L38.2818 11.3658L38.4962 11.4305L38.71 11.4974L38.9232 11.5665L39.136 11.6377L39.348 11.711L39.5594 11.7864L39.7702 11.8639L39.9802 11.9436L40.1895 12.0253L40.3982 12.1092L40.606 12.1951L40.813 12.2831L41.0193 12.3732L41.2248 12.4654L41.4293 12.5596L41.6331 12.6559L41.836 12.7542L42.0379 12.8546L42.2389 12.957L42.439 13.0614L42.6381 13.1679L42.8362 13.2763L43.0332 13.3868L43.2293 13.4992L43.4243 13.6136L43.6182 13.7301L43.8111 13.8484L44.0028 13.9687L44.1933 14.091L44.3827 14.2151L44.5709 14.3412L44.758 14.4693L44.9437 14.5991L45.1283 14.731L45.3116 14.8646L45.4935 15.0002L45.6743 15.1376L45.8537 15.2768L46.0317 15.418L46.2083 15.5607L46.3837 15.7054L46.5576 15.852L46.7301 16.0002L46.9012 16.1502L47.0708 16.302L47.2388 16.4556L47.4055 16.6109L47.5706 16.7678L47.7342 16.9264L47.8963 17.0868L48.0568 17.2488L48.2156 17.4126L48.373 17.5778L48.5286 17.7448L48.6827 17.9133L48.835 18.0835L48.9857 18.2552L49.1347 18.4285L49.282 18.6033L49.4276 18.7796L49.5715 18.9576L49.7136 19.1369L49.8539 19.3177L49.9924 19.5L50.1292 19.6838L50.2641 19.869L50.3972 20.0557L50.5283 20.2437L50.6577 20.433L50.7853 20.6238L50.9108 20.8159L51.0345 21.0094L51.1562 21.2042L51.276 21.4001L51.3938 21.5974L51.5098 21.796L51.6236 21.9957L51.7356 22.1967L51.8455 22.399L51.9533 22.6023L52.0592 22.8068L52.1629 23.0125L52.2647 23.2192L52.3643 23.4272L52.462 23.6361L52.5574 23.8461L52.6508 24.0572L52.7421 24.2692L52.8311 24.4823L52.9181 24.6963L53.0029 24.9113L53.0856 25.1272L53.166 25.3442L53.2443 25.5618L53.3204 25.7805L53.3943 25.9999L53.466 26.2203L53.5354 26.4413L53.6027 26.6632L53.6676 26.8859L53.7303 27.1092L53.7907 27.3334L53.8489 27.5583L53.9047 27.7837L53.9584 28.0099L54.0097 28.2367L54.0587 28.4642L54.1054 28.692L54.1497 28.9207L54.1917 29.1498L54.2316 29.3794L54.2689 29.6095L54.304 29.8401L54.3367 30.0712L54.367 30.3026L54.3949 30.5346L54.4206 30.7668L54.4437 30.9994L54.4646 31.2323L54.4832 31.4657L54.4992 31.6992L54.5129 31.9331L54.5242 32.1671L54.5332 32.4015L54.5396 32.6359L54.5438 32.8706L54.5455 33.1054L54.5448 33.3404L54.5417 33.5755L54.5361 33.8107L54.5282 34.0458L54.5178 34.281L54.5051 34.5162L54.4898 34.7515L54.4723 34.9867L54.4522 35.2218L54.4297 35.4569L54.4049 35.6918L54.3775 35.9265L54.3477 36.1612L54.3157 36.3956L54.2811 36.6299L54.2441 36.8639L54.2047 37.0976L54.1628 37.3311L54.1187 37.5643L54.072 37.7972L54.0229 38.0297L53.9714 38.2617L53.9175 38.4936L53.8613 38.7248L53.8026 38.9557L53.7415 39.186L53.6781 39.4159L53.6122 39.6453L53.544 39.8741L53.4734 40.1025L53.4003 40.3301L53.325 40.5573L53.2473 40.7837L53.1671 41.0095L53.0847 41.2346L52.9999 41.4589L52.9128 41.6826L52.8233 41.9055L52.7316 42.1277L52.6375 42.349L52.5411 42.5696L52.4423 42.7892L52.3413 43.008L52.2379 43.2259L52.1324 43.4429L52.0244 43.659L51.9143 43.8741L51.8018 44.0883L51.6873 44.3013L51.5703 44.5135L51.4512 44.7244L51.3299 44.9344L51.2063 45.1433L51.0806 45.351L50.9527 45.5578L50.8225 45.7631L50.6902 45.9674L50.5559 46.1704L50.4192 46.3723L50.2806 46.5728L50.1397 46.7722L49.9968 46.9702L49.8517 47.167L49.7046 47.3624L49.5554 47.5564L49.4042 47.749L49.2509 47.9403L49.0956 48.1301L48.9382 48.3184L48.7788 48.5054L48.6175 48.6908L48.4541 48.8748L48.2888 49.0573L48.1217 49.2382L47.9526 49.4175L47.7814 49.5953L47.6085 49.7714L47.4336 49.9459L47.2568 50.1188L47.0783 50.2901L46.8979 50.4597L46.7158 50.6276L46.5317 50.7938L46.3458 50.9582L46.1583 51.1208L45.9689 51.2819L45.7778 51.441L45.585 51.5982L45.3906 51.7538L45.1943 51.9075L44.9965 52.0593L44.797 52.2092L44.5958 52.3573L44.3932 52.5034L44.1888 52.6476L43.9829 52.7899L43.7755 52.9302L43.5666 53.0685L43.356 53.2049L43.1441 53.3393L42.9307 53.4716L42.7158 53.602L42.4994 53.7302L42.2816 53.8564L42.0626 53.9805L41.842 54.1024L41.6203 54.2224L41.397 54.3401L41.1726 54.4557L40.9468 54.5693L40.7197 54.6806L40.4914 54.7897L40.2619 54.8967L40.0312 55.0015L39.7994 55.104L39.5663 55.2043L39.3322 55.3023L39.097 55.3982L38.8607 55.4917L38.6232 55.5829L38.3848 55.672L38.1453 55.7586L37.9048 55.843L37.6634 55.9249L37.4211 56.0047L37.1777 56.082L36.9334 56.157L36.6884 56.2297L36.4425 56.2999L36.1957 56.3678L35.9482 56.4334L35.6997 56.4964L35.4507 56.5571L35.2009 56.6155L34.9503 56.6712L34.6991 56.7247L34.4472 56.7757L34.1947 56.8242L33.9416 56.8703L33.688 56.9138L33.4337 56.955L33.1789 56.9937L32.9235 57.0299L32.6678 57.0636L32.4116 57.0948L32.1548 57.1234L31.8978 57.1496L31.6403 57.1733L31.3826 57.1945L31.1245 57.2132L30.8661 57.2293L30.6072 57.2429L30.3483 57.2539L30.0892 57.2624L29.8297 57.2684L29.5702 57.2718L29.3104 57.2728L29.0507 57.2711L28.7907 57.2669L28.5307 57.2602L28.2707 57.2508L28.0106 57.2389L27.7506 57.2246L27.4907 57.2076L27.2306 57.1881L26.9708 57.166L26.7111 57.1413L26.4514 57.1142L26.1921 57.0844L25.9328 57.0521L25.6737 57.0172L25.4151 56.9797L25.1565 56.9397L24.8984 56.8972L24.6405 56.8522L24.3829 56.8045L24.1259 56.7543L23.8691 56.7017L23.6129 56.6463L23.3569 56.5885L23.1017 56.5282L22.8468 56.4653L22.5925 56.3999L22.3387 56.332L22.0856 56.2616L21.8331 56.1887L21.5811 56.1133L21.3299 56.0352L21.0794 55.9548L20.8296 55.8719L20.5804 55.7864L20.3321 55.6984L20.0846 55.6082L19.8379 55.5153L19.5921 55.42L19.3472 55.3222L19.1031 55.222L18.8599 55.1193L18.6177 55.0143L18.3765 54.9068L18.1362 54.7969L17.8971 54.6846L17.659 54.5699L17.422 54.4527L17.1859 54.3333L16.9511 54.2115L16.7175 54.0873L16.4849 53.9609L16.2536 53.832L16.0236 53.7008L15.7947 53.5673L15.5672 53.4315L15.3409 53.2935L15.1159 53.1531L14.8923 53.0106L14.6702 52.8656L14.4492 52.7186L14.2298 52.5692L14.0119 52.4177L13.7954 52.264L13.5804 52.108L13.3668 51.9499L13.1548 51.7896L12.9444 51.6272L12.7356 51.4627L12.5283 51.2959L12.3227 51.1273L12.1187 50.9564L11.9164 50.7835L11.7157 50.6085L11.5168 50.4314L11.3196 50.2523L11.1242 50.0714L10.9306 49.8883L10.7387 49.7033L10.5487 49.5163L10.3605 49.3274L10.1741 49.1366L9.98967 48.9438L9.8071 48.7492L9.62646 48.5527L9.44777 48.3543L9.27103 48.1541L9.09627 47.9522L8.92351 47.7483L8.75277 47.5428L8.58407 47.3354L8.41742 47.1263L8.25286 46.9155L8.09038 46.7031L7.93002 46.4888L7.77178 46.273L7.6157 46.0555L7.46177 45.8363L7.31004 45.6157L7.1605 45.3934L7.01319 45.1695L6.86811 44.9442L6.72527 44.7173L6.58471 44.4889L6.44644 44.2592L6.31045 44.0277L6.1768 43.7951L6.04547 43.561L5.91649 43.3255L5.78987 43.0885L5.66562 42.8503L5.54378 42.6108L5.42432 42.37L5.30731 42.1279L5.19272 41.8845L5.08058 41.64L4.9709 41.3942L4.86369 41.1473L4.75898 40.8992L4.65677 40.65L4.55706 40.3997L4.45989 40.1482L4.36527 39.8958L4.27318 39.6423L4.18366 39.3878L4.0967 39.1324L4.01233 38.8759L3.93057 38.6186L3.8514 38.3603L3.77485 38.1012L3.70093 37.8412L3.62964 37.5803L3.561 37.3188L3.49501 37.0564L3.43168 36.7933L3.37104 36.5294L3.31307 36.2647L3.25779 35.9995L3.20521 35.7336L3.15533 35.4671L3.10816 35.2L3.06372 34.9323L3.02199 34.6641L2.983 34.3953L2.94676 34.126L2.91327 33.8562L2.88252 33.5861L2.85452 33.3156L2.82929 33.0447L2.80684 32.7734L2.78714 32.5018L2.77024 32.2298L2.75611 31.9577L2.74476 31.6852L2.7362 31.4126L2.73043 31.1397L2.72747 30.8667L2.72729 30.5936ZM29.152 10.5914L29.0898 5.3411L29.0308 5.3468L28.7597 5.37565L28.4892 5.40713L28.219 5.44127L27.9498 5.47795L27.6809 5.51731L27.4123 5.55929L27.1444 5.60386L26.8769 5.65108L26.6107 5.70076L26.3441 5.75322L26.0794 5.80804L25.8143 5.86562L25.5506 5.92565L25.2872 5.98835L25.0249 6.05345L24.7634 6.12117L24.5025 6.19141L24.2425 6.26419L23.9837 6.3394L23.7253 6.41721L23.4682 6.49744L23.2118 6.58021L22.9568 6.66527L22.7022 6.75302L22.449 6.84312L22.197 6.9356L21.9457 7.0306L21.6957 7.12793L21.4472 7.22759L21.1992 7.32983L20.9526 7.43438L20.7071 7.54131L20.463 7.6505L20.2202 7.76206L19.9787 7.87587L19.738 7.99219L19.4991 8.11063L19.2614 8.23138L19.0251 8.35441L18.7901 8.47971L18.5568 8.60716L18.3244 8.73696L18.0936 8.86902L17.8647 9.00295L17.6366 9.13951L17.4107 9.27788L17.1862 9.4184L16.9628 9.56123L16.7413 9.70614L16.5213 9.85317L16.3034 10.0019L16.0863 10.1533L15.8714 10.3063L15.6581 10.4615L15.4463 10.6187L15.2365 10.7778L15.0285 10.9389L14.8218 11.1022L14.6174 11.267L14.4145 11.434L14.2135 11.6029L14.0142 11.7737L13.8171 11.9461L13.6214 12.1207L13.4279 12.2969L13.2361 12.4751L13.0465 12.6548L12.8586 12.8364L12.6728 13.0197L12.4889 13.2048L12.3068 13.3918L12.1271 13.5801L11.9494 13.77L11.7733 13.9622L11.5996 14.1555L11.4281 14.3503L11.2583 14.547L11.091 14.745L10.9255 14.9448L10.7623 15.1459L10.6012 15.3487L10.4422 15.5528L10.2855 15.7583L10.1309 15.9653L9.97843 16.174L9.8284 16.3836L9.68038 16.5949L9.53472 16.8074L9.3913 17.0212L9.25004 17.2364L9.11117 17.4528L8.97458 17.6703L8.84027 17.8892L8.70837 18.1091L8.57863 18.3304L8.45123 18.553L8.32633 18.7763L8.20367 19.0009L8.08336 19.2267L7.96549 19.4535L7.84993 19.6814L7.73686 19.9101L7.62615 20.1398L7.51787 20.3706L7.41196 20.6024L7.30855 20.8349L7.2075 21.0685L7.1089 21.3029L7.01284 21.538L6.91917 21.774L6.82795 22.0109L6.73925 22.2484L6.653 22.4868L6.5693 22.7257L6.48801 22.9656L6.40925 23.206L6.33301 23.4471L6.25929 23.6886L6.18803 23.931L6.11934 24.1737L6.05316 24.4172L5.9895 24.661L5.92836 24.9055L5.86978 25.1502L5.81374 25.3956L5.76023 25.6413L5.70927 25.8874L5.66086 26.1338L5.61499 26.3807L5.57168 26.6278L5.53092 26.8752L5.49272 27.1229L5.45708 27.3708L5.424 27.619L5.39346 27.8673L5.36549 28.1157L5.34009 28.3645L5.31725 28.6132L5.29696 28.8619L5.27923 29.1109L5.26407 29.3599L5.25145 29.6088L5.2414 29.8578L5.2339 30.1067L5.22897 30.3555L5.22657 30.6042L5.22673 30.853L5.22943 31.1014L5.23468 31.3499L5.24247 31.5981L5.25279 31.846L5.26566 32.0938L5.28104 32.3411L5.29896 32.5883L5.3194 32.8352L5.34237 33.0817L5.36783 33.328L5.39581 33.5737L5.42629 33.8192L5.45926 34.0641L5.49473 34.3086L5.53269 34.5527L5.57311 34.7961L5.61602 35.0391L5.66139 35.2815L5.70921 35.5233L5.75949 35.7647L5.81221 36.0052L5.86737 36.2452L5.92495 36.4845L5.98495 36.7232L6.04738 36.9611L6.11218 37.1981L6.17941 37.4346L6.24901 37.6702L6.32098 37.905L6.39533 38.139L6.472 38.3721L6.55104 38.6043L6.63242 38.8356L6.71612 39.066L6.80211 39.2954L6.89046 39.5239L6.98105 39.7514L7.07393 39.9779L7.1691 40.2033L7.2665 40.4276L7.36617 40.651L7.46806 40.8732L7.57217 41.0943L7.67848 41.3143L7.787 41.533L7.89769 41.7506L8.01055 41.967L8.12556 42.1822L8.24273 42.3962L8.362 42.6087L8.48339 42.8201L8.60689 43.0303L8.73248 43.2389L8.86007 43.4463L8.98981 43.6523L9.12152 43.8569L9.25529 44.0602L9.39107 44.262L9.52881 44.4623L9.66853 44.6613L9.81025 44.8587L9.95387 45.0547L10.0995 45.2492L10.2469 45.442L10.3963 45.6333L10.5475 45.823L10.7006 46.0112L10.8556 46.1978L11.0123 46.3828L11.1709 46.566L11.3313 46.7477L11.4935 46.9277L11.6573 47.1059L11.8229 47.2825L11.9903 47.4573L12.1593 47.6305L12.33 47.8019L12.5024 47.9714L12.6765 48.1393L12.8521 48.3052L13.0293 48.4695L13.2082 48.6319L13.3886 48.7924L13.5704 48.951L13.7539 49.1078L13.939 49.2627L14.1252 49.4158L14.3133 49.567L14.5026 49.716L14.6933 49.8633L14.8855 50.0087L15.0791 50.152L15.274 50.2932L15.4702 50.4326L15.6677 50.5699L15.8666 50.7053L16.0667 50.8386L16.2682 50.9699L16.4707 51.0992L16.6746 51.2262L16.8797 51.3514L17.0857 51.4744L17.2931 51.5954L17.5015 51.7142L17.7111 51.8309L17.9216 51.9454L18.1334 52.0579L18.346 52.1682L18.5597 52.2765L18.7744 52.3825L18.9902 52.4864L19.2067 52.5881L19.4242 52.6877L19.6425 52.7849L19.8619 52.8801L20.082 52.9729L20.3031 53.0637L20.5248 53.1522L20.7473 53.2384L20.9707 53.3226L21.1946 53.4044L21.4193 53.4839L21.6449 53.5612L21.871 53.6363L22.0977 53.7092L22.3249 53.7797L22.5531 53.848L22.7815 53.914L23.0106 53.9777L23.2402 54.0392L23.4702 54.0983L23.7008 54.1552L23.9317 54.2097L24.1632 54.2621L24.3951 54.312L24.6272 54.3597L24.8598 54.4052L25.0927 54.4482L25.3259 54.489L25.5593 54.5275L25.7931 54.5636L26.0271 54.5974L26.2613 54.6289L26.4956 54.6582L26.7302 54.6851L26.9648 54.7097L27.1997 54.732L27.4346 54.7519L27.6696 54.7697L27.9045 54.7849L28.1396 54.798L28.3746 54.8087L28.6095 54.8171L28.8445 54.8232L29.0794 54.8269L29.3141 54.8284L29.5488 54.8276L29.7833 54.8245L30.0176 54.8192L30.2518 54.8114L30.4857 54.8014L30.7195 54.7892L30.9528 54.7746L31.186 54.7578L31.4189 54.7387L31.6514 54.7173L31.8835 54.6936L32.1153 54.6677L32.3466 54.6396L32.5776 54.6092L32.808 54.5764L33.0381 54.5415L33.2676 54.5044L33.4967 54.465L33.7252 54.4234L33.9531 54.3797L34.1804 54.3337L34.4072 54.2854L34.6332 54.2351L34.8587 54.1825L35.0835 54.1277L35.3076 54.0708L35.5309 54.0116L35.7535 53.9504L35.9755 53.887L36.1965 53.8214L36.4169 53.7537L36.6363 53.6841L36.855 53.6121L37.0728 53.5382L37.2895 53.4621L37.5056 53.3838L37.7207 53.3036L37.9347 53.2212L38.1479 53.137L38.3599 53.0507L38.571 52.9622L38.7812 52.8717L38.9902 52.7793L39.198 52.6849L39.405 52.5885L39.6108 52.4901L39.8153 52.3898L40.0189 52.2874L40.2212 52.1833L40.4223 52.0772L40.6223 51.969L40.8209 51.8591L41.0183 51.7473L41.2144 51.6337L41.4096 51.5181L41.6029 51.4008L41.7955 51.2815L41.9862 51.1605L42.1758 51.0377L42.3641 50.913L42.5511 50.7865L42.7362 50.6586L42.9202 50.5286L43.1028 50.397L43.2839 50.2638L43.4636 50.1287L43.6416 49.9922L43.8184 49.8536L43.9934 49.7137L44.1668 49.5722L44.3391 49.4288L44.5095 49.2839L44.6782 49.1376L44.8455 48.9895L45.0111 48.84L45.1751 48.6889L45.3375 48.5363L45.498 48.3824L45.6572 48.2267L45.8145 48.0696L45.9701 47.9111L46.1241 47.7512L46.2761 47.59L46.4264 47.4274L46.5753 47.263L46.722 47.0977L46.8673 46.9308L47.0104 46.7628L47.152 46.5933L47.2916 46.4227L47.4293 46.2507L47.5654 46.0774L47.6995 45.9032L47.8319 45.7274L47.9621 45.5507L48.0907 45.3726L48.2175 45.1933L48.3419 45.0133L48.4647 44.8317L48.5854 44.6494L48.7043 44.4658L48.8215 44.281L48.9363 44.0955L49.0492 43.909L49.1603 43.7209L49.2692 43.5326L49.3762 43.3429L49.4813 43.1523L49.5842 42.9611L49.6852 42.7686L49.7842 42.5752L49.8809 42.3817L49.9758 42.1866L50.0687 41.9907L50.1593 41.7944L50.248 41.5972L50.3346 41.3992L50.419 41.2007L50.5015 41.001L50.5818 40.8008L50.6599 40.6005L50.736 40.3987L50.8099 40.1969L50.8819 39.9941L50.9518 39.7909L51.0194 39.5871L51.0847 39.3832L51.1483 39.1778L51.2093 38.9727L51.2684 38.767L51.3254 38.5609L51.3802 38.3541L51.4327 38.1472L51.4833 37.9397L51.5316 37.7317L51.5778 37.5236L51.6218 37.315L51.6636 37.1065L51.7032 36.897L51.7407 36.6881L51.7761 36.4784L51.8092 36.2685L51.8402 36.0587L51.8691 35.8484L51.8957 35.6384L51.9202 35.4274L51.9424 35.2173L51.9626 35.0065L51.9805 34.7961L51.9963 34.585L52.0099 34.3747L52.0214 34.1637L52.0307 33.9527L52.0378 33.7421L52.0428 33.532L52.0455 33.321L52.0462 33.1105L52.0447 32.9002L52.041 32.6901L52.0352 32.4799L52.0271 32.2706L52.017 32.0605L52.0047 31.8513L51.9903 31.6421L51.9738 31.4336L51.9551 31.2247L51.9344 31.0167L51.9115 30.8087L51.8864 30.6013L51.8593 30.394L51.8301 30.1874L51.7986 29.9807L51.7652 29.7749L51.7297 29.5698L51.6921 29.3646L51.6522 29.16L51.6105 28.9563L51.5666 28.7524L51.5209 28.5501L51.4728 28.3474L51.423 28.1462L51.3708 27.9446L51.3168 27.7446L51.2608 27.5448L51.2027 27.3454L51.1427 27.1473L51.0806 26.9498L51.0164 26.7525L50.9505 26.5567L50.8823 26.361L50.8125 26.1666L50.7405 25.9725L50.6668 25.7798L50.5908 25.5874L50.5131 25.3961L50.4336 25.206L50.3522 25.0168L50.2684 24.8278L50.1835 24.6405L50.0961 24.4534L50.0072 24.2681L49.9163 24.0835L49.8235 23.8995L49.7291 23.7171L49.6327 23.5354L49.5344 23.3546L49.4348 23.1756L49.333 22.9969L49.2296 22.8198L49.1242 22.6435L49.0176 22.4689L48.9086 22.2948L48.7984 22.1223L48.6862 21.9506L48.5725 21.7804L48.4573 21.6117L48.34 21.4438L48.2212 21.2773L48.1009 21.112L47.9789 20.9482L47.8553 20.7854L47.7302 20.6242L47.6035 20.4641L47.4752 20.3055L47.3453 20.1483L47.2139 19.9923L47.0809 19.8378L46.9466 19.6847L46.8109 19.533L46.6736 19.3827L46.5345 19.2337L46.3947 19.0867L46.2527 18.9405L46.1099 18.7964L45.9655 18.6533L45.8198 18.5121L45.6723 18.3719L45.5242 18.2339L45.3742 18.097L45.223 17.9617L45.0709 17.8282L44.9174 17.6962L44.7621 17.5654L44.6059 17.4366L44.4487 17.3093L44.2901 17.1838L44.1303 17.0597L43.9697 16.9376L43.8073 16.8165L43.6443 16.6977L43.48 16.5805L43.3144 16.4647L43.1482 16.3508L42.9802 16.2383L42.8122 16.1282L42.6423 16.0192L42.4718 15.9122L42.3 15.8068L42.1275 15.7031L41.9541 15.6014L41.7799 15.5016L41.6042 15.403L41.4284 15.3067L41.2511 15.2119L41.0732 15.1191L40.8945 15.0281L40.7148 14.9388L40.5344 14.8512L40.3533 14.7657L40.1712 14.6819L39.9888 14.6001L39.8054 14.5199L39.6154 14.4392L39.4368 14.3654L39.2509 14.2907L39.0653 14.2182L38.8783 14.1472L38.6912 14.0785L38.5033 14.0114L38.3149 13.9463L38.1258 13.8829L37.9365 13.8217L37.7464 13.7622L37.5559 13.7047L37.3653 13.6492L37.1738 13.5954L36.9817 13.5435L36.7898 13.4937L36.5976 13.4458L36.4041 13.3996L36.2113 13.3556L36.0175 13.3133L35.8237 13.2731L35.6292 13.2347L35.4351 13.1983L35.2403 13.1638L35.0457 13.1313L34.8502 13.1006L34.6552 13.072L34.4598 13.0452L34.2641 13.0204L34.0684 12.9975L33.8727 12.9766L33.6769 12.9576L33.481 12.9405L33.2849 12.9253L33.0887 12.9121L32.893 12.9009L32.6972 12.8915L32.5007 12.8841L32.3053 12.8786L32.1094 12.875L31.9137 12.8734L31.7178 12.8737L31.6785 12.8741L31.7403 18.0862L31.8514 18.0857L31.9945 18.0865L32.1375 18.0887L32.2807 18.0923L32.424 18.0974L32.5673 18.1039L32.7107 18.1118L32.8541 18.1211L32.9976 18.1319L33.141 18.144L33.2845 18.1577L33.4278 18.1727L33.5713 18.1892L33.7146 18.207L33.8577 18.2262L34.0009 18.2471L34.144 18.2692L34.2869 18.2928L34.4298 18.3179L34.5724 18.3443L34.7149 18.3723L34.8573 18.4016L34.9995 18.4323L35.1415 18.4645L35.2832 18.4982L35.4247 18.5332L35.5658 18.5696L35.7068 18.6075L35.8476 18.6468L35.988 18.6876L36.1282 18.7297L36.268 18.7732L36.4073 18.8182L36.5464 18.8646L36.6852 18.9124L36.8235 18.9617L36.9615 19.0122L37.099 19.0642L37.2362 19.1177L37.3728 19.1725L37.509 19.2287L37.6447 19.2863L37.78 19.3452L37.9147 19.4057L38.0489 19.4673L38.1825 19.5304L38.3158 19.5949L38.4483 19.6608L38.5803 19.728L38.7118 19.7966L38.8425 19.8664L38.9727 19.9377L39.1023 20.0103L39.2312 20.0842L39.3595 20.1595L39.4871 20.2361L39.6139 20.314L39.7401 20.3932L39.8655 20.4738L39.9903 20.5556L40.1143 20.6387L40.2375 20.7231L40.36 20.8088L40.4816 20.8957L40.6024 20.9839L40.7224 21.0735L40.8418 21.1642L40.96 21.2563L41.0775 21.3495L41.1941 21.4439L41.3099 21.5396L41.4247 21.6366L41.5387 21.7346L41.6517 21.8339L41.7638 21.9344L41.875 22.0361L41.985 22.1389L42.0942 22.243L42.2024 22.3481L42.3096 22.4545L42.4158 22.5619L42.5209 22.6706L42.6251 22.7802L42.7281 22.8911L42.8301 23.0031L42.931 23.1161L43.0308 23.2301L43.1295 23.3453L43.2272 23.4615L43.3237 23.5788L43.419 23.6972L43.5132 23.8165L43.6063 23.9369L43.6982 24.0583L43.7888 24.1807L43.8783 24.304L43.9667 24.4283L44.0537 24.5537L44.1396 24.6799L44.2241 24.8072L44.3074 24.9352L44.3895 25.0643L44.4704 25.1943L44.55 25.3251L44.6283 25.4568L44.7052 25.5895L44.7809 25.7228L44.8552 25.8572L44.9282 25.9923L44.9999 26.1283L45.0702 26.265L45.1391 26.4026L45.2067 26.541L45.273 26.6801L45.3378 26.8199L45.4012 26.9606L45.4632 27.1019L45.5239 27.244L45.5831 27.3867L45.6409 27.5302L45.6973 27.6743L45.7521 27.819L45.8055 27.9645L45.8575 28.1106L45.9081 28.2573L45.9572 28.4046L46.0046 28.5525L46.0507 28.7009L46.0953 28.8499L46.1384 28.9995L46.18 29.1497L46.2199 29.3003L46.2585 29.4514L46.2955 29.6031L46.3309 29.7551L46.3649 29.9077L46.3972 30.0607L46.428 30.2141L46.4572 30.3679L46.4849 30.5223L46.5111 30.6769L46.5356 30.8318L46.5585 30.9873L46.5799 31.1429L46.5997 31.2989L46.618 31.4553L46.6345 31.612L46.6495 31.7688L46.663 31.926L46.6747 32.0834L46.6849 32.241L46.6934 32.3988L46.7003 32.5568L46.7057 32.7152L46.7093 32.8735L46.7114 33.0321L46.7118 33.1908L46.7106 33.3495L46.7077 33.5084L46.7032 33.6674L46.6971 33.8265L46.6893 33.9855L46.6799 34.1447L46.6688 34.3039L46.6562 34.4631L46.6417 34.6222L46.6257 34.7813L46.608 34.9403L46.5888 35.0995L46.5678 35.2583L46.5452 35.4172L46.5209 35.5759L46.495 35.7345L46.4674 35.893L46.4381 36.0513L46.4073 36.2095L46.3747 36.3674L46.3405 36.5252L46.3047 36.6827L46.2672 36.8399L46.2281 36.9968L46.1873 37.1537L46.1449 37.3101L46.1009 37.4662L46.0552 37.6219L46.0079 37.7774L45.9589 37.9326L45.9082 38.0873L45.856 38.2416L45.8021 38.3955L45.7467 38.5491L45.6896 38.7021L45.6308 38.8547L45.5706 39.0068L45.5087 39.1585L45.4451 39.3097L45.3799 39.4603L45.3132 39.6104L45.2449 39.76L45.175 39.9089L45.1035 40.0572L45.0304 40.2051L44.9557 40.3522L44.8795 40.4988L44.8018 40.6446L44.7224 40.7898L44.6415 40.9343L44.5592 41.0782L44.4752 41.2213L44.3897 41.3638L44.3027 41.5053L44.2142 41.6463L44.124 41.7863L44.0325 41.9257L43.9394 42.0641L43.8449 42.2018L43.7489 42.3388L43.6514 42.4747L43.5524 42.6098L43.452 42.7442L43.3502 42.8775L43.2468 43.0099L43.1421 43.1414L43.0358 43.272L42.9282 43.4016L42.8193 43.5303L42.7088 43.6579L42.597 43.7846L42.4838 43.9102L42.3693 44.0348L42.2534 44.1584L42.1362 44.281L42.0176 44.4023L41.8978 44.5228L41.7764 44.6419L41.6539 44.7602L41.53 44.8772L41.4049 44.9929L41.2785 45.1077L41.1507 45.2212L41.0219 45.3336L40.8917 45.4448L40.7603 45.5547L40.6277 45.6636L40.4939 45.771L40.3587 45.8772L40.2225 45.9822L40.0852 46.086L39.9467 46.1884L39.8069 46.2896L39.6662 46.3896L39.5242 46.488L39.3812 46.5852L39.2369 46.6811L39.0917 46.7756L38.9453 46.8687L38.7981 46.9605L38.6496 47.0508L38.5002 47.1398L38.3497 47.2274L38.1983 47.3134L38.0459 47.3981L37.8925 47.4814L37.7381 47.5632L37.5828 47.6436L37.4265 47.7224L37.2694 47.7997L37.1114 47.8757L36.9524 47.95L36.7926 48.0228L36.6319 48.0941L36.4705 48.1639L36.3081 48.2321L36.145 48.2988L35.9811 48.364L35.8163 48.4275L35.6509 48.4896L35.4847 48.55L35.3178 48.6087L35.1501 48.6659L34.9818 48.7215L34.8127 48.7754L34.6431 48.8277L34.4727 48.8785L34.3018 48.9274L34.1302 48.9749L33.958 49.0206L33.7852 49.0646L33.6119 49.107L33.438 49.1478L33.2635 49.1868L33.0887 49.2242L32.9132 49.2597L32.7372 49.2937L32.5609 49.326L32.3841 49.3566L32.2068 49.3853L32.0292 49.4123L31.8512 49.4377L31.6727 49.4613L31.4939 49.4832L31.3148 49.5033L31.1354 49.5217L30.9557 49.5383L30.7757 49.5532L30.5954 49.5663L30.4148 49.5776L30.234 49.5872L30.0531 49.5949L29.8718 49.6009L29.6905 49.6052L29.509 49.6076L29.3272 49.6083L29.1454 49.6072L28.9637 49.6042L28.7816 49.5996L28.5996 49.593L28.4175 49.5847L28.2353 49.5746L28.0533 49.5628L27.8711 49.5491L27.6891 49.5336L27.507 49.5163L27.325 49.4972L27.1431 49.4763L26.9613 49.4537L26.7795 49.4291L26.598 49.4028L26.4167 49.3747L26.2354 49.3448L26.0543 49.3131L25.8735 49.2797L25.693 49.2443L25.5127 49.2071L25.3326 49.1683L25.1528 49.1276L24.9734 49.0851L24.7942 49.0407L24.6154 48.9947L24.4369 48.9468L24.2588 48.8972L24.0813 48.8458L23.904 48.7926L23.7272 48.7376L23.5508 48.6807L23.3751 48.6222L23.1996 48.562L23.0247 48.4999L22.8505 48.4361L22.6766 48.3705L22.5034 48.3032L22.3308 48.2342L22.1587 48.1632L21.9873 48.0907L21.8166 48.0165L21.6465 47.9404L21.477 47.8627L21.3083 47.7833L21.1403 47.7022L20.973 47.6193L20.8064 47.5347L20.6407 47.4486L20.4757 47.3606L20.3115 47.271L20.1482 47.1798L19.9856 47.0868L19.8239 46.9923L19.6631 46.896L19.5032 46.7981L19.3442 46.6987L19.1861 46.5975L19.029 46.4948L18.8729 46.3904L18.7177 46.2844L18.5635 46.177L18.4103 46.0679L18.2582 45.9572L18.1071 45.8449L17.9569 45.7311L17.808 45.6157L17.6602 45.4988L17.5135 45.3803L17.3678 45.2605L17.2233 45.139L17.08 45.0161L16.9379 44.8916L16.7969 44.7658L16.6571 44.6384L16.5187 44.5097L16.3814 44.3794L16.2453 44.2477L16.1106 44.1146L15.9772 43.9802L15.8451 43.8442L15.7142 43.707L15.5846 43.5683L15.4566 43.4284L15.3298 43.287L15.2043 43.1444L15.0803 43.0004L14.9576 42.8552L14.8365 42.7086L14.7167 42.5606L14.5984 42.4116L14.4816 42.2612L14.3662 42.1095L14.2523 41.9567L14.1398 41.8027L14.029 41.6474L13.9197 41.491L13.8119 41.3333L13.7057 41.1746L13.601 41.0148L13.4979 40.8537L13.3964 40.6916L13.2966 40.5284L13.1983 40.3641L13.1017 40.1988L13.0067 40.0323L12.9133 39.865L12.8217 39.6964L12.7317 39.5271L12.6434 39.3566L12.5568 39.1852L12.4719 39.0128L12.3887 38.8395L12.3073 38.6654L12.2276 38.4902L12.1497 38.3142L12.0735 38.1374L11.9991 37.9596L11.9265 37.7811L11.8556 37.6017L11.7866 37.4215L11.7194 37.2405L11.654 37.0589L11.5904 36.8763L11.5287 36.6932L11.4688 36.5092L11.4108 36.3246L11.3547 36.1394L11.3004 35.9534L11.248 35.7668L11.1975 35.5796L11.1488 35.3917L11.1021 35.2034L11.0573 35.0144L11.0144 34.8248L10.9734 34.6348L10.9344 34.4443L10.8973 34.2532L10.8621 34.0616L10.8289 33.8696L10.7976 33.6772L10.7683 33.4844L10.741 33.2912L10.7156 33.0975L10.6923 32.9035L10.6708 32.7092L10.6514 32.5146L10.634 32.3196L10.6185 32.1243L10.6051 31.9289L10.5936 31.7331L10.5842 31.5371L10.5768 31.341L10.5714 31.1447L10.5679 30.9482L10.5666 30.7514L10.5672 30.5546L10.5698 30.3577L10.5745 30.1608L10.5812 29.9637L10.59 29.7666L10.6007 29.5695L10.6135 29.3723L10.6284 29.1753L10.6452 28.9781L10.6641 28.7812L10.6851 28.5842L10.708 28.3874L10.733 28.1906L10.7601 27.994L10.7892 27.7975L10.8203 27.6012L10.8534 27.4052L10.8886 27.2093L10.9258 27.0137L10.965 26.8183L11.0063 26.6233L11.0496 26.4284L11.0949 26.2339L11.1423 26.0398L11.1917 25.846L11.2431 25.6526L11.2965 25.4595L11.3519 25.267L11.4093 25.0748L11.4687 24.8831L11.5302 24.6918L11.5936 24.5012L11.659 24.3109L11.7265 24.1213L11.7959 23.9321L11.8673 23.7435L11.9406 23.5556L12.016 23.3682L12.0933 23.1816L12.1726 22.9956L12.2538 22.8101L12.3369 22.6255L12.4221 22.4415L12.5091 22.2583L12.5981 22.0758L12.689 21.8942L12.7818 21.7132L12.8766 21.5332L12.9732 21.3539L13.0717 21.1755L13.1721 20.998L13.2744 20.8212L13.3786 20.6456L13.4846 20.4708L13.5925 20.2969L13.7022 20.124L13.8138 19.9521L13.9272 19.7812L14.0423 19.6113L14.1595 19.4425L14.2782 19.2746L14.3988 19.1078L14.5212 18.9423L14.6453 18.7777L14.7713 18.6143L14.899 18.4521L15.0284 18.291L15.1594 18.1312L15.2922 17.9725L15.4268 17.815L15.5631 17.6587L15.7009 17.5038L15.8406 17.3501L15.9817 17.1977L16.1246 17.0466L16.2692 16.8967L16.4152 16.7483L16.5629 16.6012L16.7122 16.4554L16.8632 16.3112L17.0156 16.1681L17.1696 16.0267L17.3252 15.8865L17.4822 15.748L17.6407 15.6108L17.8008 15.4751L17.9624 15.3409L18.1253 15.2083L18.2898 15.0771L18.4557 14.9475L18.6231 14.8195L18.7917 14.6931L18.9619 14.5682L19.1333 14.4449L19.3061 14.3232L19.4804 14.2032L19.6559 14.0849L19.8326 13.9683L20.0108 13.8532L20.1902 13.7399L20.3708 13.6283L20.5527 13.5183L20.7359 13.4101L20.9201 13.3037L21.1057 13.199L21.2924 13.0961L21.4802 12.9949L21.6692 12.8956L21.8592 12.798L22.0504 12.7023L22.2427 12.6084L22.4361 12.5163L22.6305 12.4261L22.8259 12.3377L23.0224 12.2512L23.2199 12.1666L23.4183 12.0839L23.6177 12.0031L23.8178 11.9242L24.0191 11.8472L24.2212 11.7722L24.4242 11.6991L24.6281 11.628L24.8328 11.5588L25.0383 11.4917L25.2445 11.4265L25.4516 11.3632L25.6594 11.302L25.8681 11.2428L26.0772 11.1856L26.2872 11.1305L26.4979 11.0774L26.7093 11.0263L26.9212 10.9773L27.1338 10.9303L27.3469 10.8853L27.5606 10.8425L27.775 10.8017L27.9897 10.7631L28.2051 10.7265L28.4209 10.692L28.6372 10.6596L28.8539 10.6293L29.071 10.6011L29.152 10.5914ZM29.2436 18.322L29.1812 13.0526L29.0032 13.0775L28.8119 13.1061L28.6204 13.1367L28.4302 13.1691L28.2397 13.2034L28.0502 13.2394L27.861 13.2774L27.6726 13.3171L27.4845 13.3586L27.2969 13.4021L27.1098 13.4473L26.9235 13.4943L26.7374 13.5431L26.5586 13.5919L26.3681 13.6461L26.1842 13.7002L26.001 13.7561L25.8188 13.8137L25.6371 13.8731L25.456 13.9343L25.2757 13.9972L25.0964 14.0617L24.9178 14.1281L24.7399 14.196L24.5628 14.2658L24.387 14.3372L24.2113 14.4104L24.0368 14.4851L23.8633 14.5615L23.6909 14.6395L23.5189 14.7192L23.3479 14.8007L23.1784 14.8834L23.0092 14.9681L22.8418 15.0542L22.6746 15.1421L22.509 15.2312L22.3438 15.3224L22.1801 15.4146L22.0176 15.5085L21.8558 15.6041L21.6953 15.7011L21.5357 15.7998L21.3776 15.8996L21.2202 16.0012L21.0644 16.1042L20.9096 16.2085L20.7559 16.3144L20.6032 16.4219L20.4522 16.5303L20.3021 16.6406L20.1532 16.7522L20.0057 16.8651L19.8595 16.9792L19.7142 17.095L19.5707 17.2118L19.4283 17.3301L19.287 17.4499L19.1475 17.5706L19.009 17.6929L18.8718 17.8165L18.7361 17.9411L18.6019 18.067L18.4687 18.1943L18.3374 18.3225L18.2073 18.4521L18.0784 18.583L17.9512 18.7148L17.8253 18.8481L17.701 18.9822L17.5781 19.1175L17.4566 19.254L17.3365 19.3918L17.2184 19.5302L17.1014 19.6699L16.9859 19.8108L16.872 19.9525L16.7598 20.0951L16.6488 20.2391L16.5396 20.3838L16.4318 20.5296L16.3258 20.6763L16.2212 20.824L16.1183 20.9723L16.017 21.1218L15.9172 21.2722L15.819 21.4234L15.7226 21.5753L15.6278 21.7282L15.5346 21.8822L15.4429 22.0365L15.3531 22.1918L15.2647 22.348L15.1782 22.5045L15.0933 22.6622L15.0098 22.8206L14.9284 22.9793L14.8485 23.1392L14.7704 23.2995L14.6939 23.4603L14.6192 23.622L14.5461 23.7842L14.4748 23.947L14.4051 24.1103L14.3373 24.2743L14.2712 24.4387L14.2067 24.6038L14.1439 24.7694L14.0831 24.9353L14.0238 25.102L13.9665 25.2687L13.9107 25.4362L13.8569 25.6041L13.8047 25.7723L13.7543 25.9409L13.7057 26.1098L13.6589 26.2791L13.6138 26.4488L13.5705 26.6187L13.5289 26.7891L13.4892 26.9597L13.4512 27.1304L13.415 27.3015L13.3806 27.4728L13.348 27.6442L13.3172 27.816L13.2881 27.9878L13.2608 28.1599L13.2354 28.3319L13.2117 28.5042L13.1898 28.6766L13.1696 28.8491L13.1513 29.0216L13.1347 29.1942L13.12 29.3669L13.107 29.5394L13.0958 29.7122L13.0863 29.8848L13.0787 30.0573L13.0728 30.2298L13.0687 30.4022L13.0664 30.5745L13.0659 30.7469L13.0671 30.919L13.0701 31.0909L13.0748 31.2628L13.0813 31.4343L13.0896 31.6058L13.0996 31.7771L13.1113 31.948L13.1248 32.1188L13.1401 32.2893L13.1571 32.4595L13.1758 32.6294L13.1962 32.799L13.2184 32.9684L13.2423 33.1372L13.2679 33.3059L13.2952 33.4739L13.3243 33.6418L13.355 33.8092L13.3874 33.976L13.4215 34.1426L13.4573 34.3086L13.4948 34.4742L13.5339 34.6391L13.5747 34.8037L13.6172 34.9678L13.6613 35.1312L13.707 35.2941L13.7545 35.4565L13.8034 35.6182L13.8542 35.7794L13.9064 35.94L13.9602 36.0998L14.0157 36.259L14.0727 36.4176L14.1314 36.5755L14.1917 36.7327L14.2534 36.8891L14.3167 37.0448L14.3816 37.1999L14.448 37.3541L14.5161 37.5075L14.5855 37.6603L14.6565 37.812L14.7291 37.9631L14.803 38.1134L14.8785 38.2627L14.9554 38.4113L15.0338 38.559L15.1137 38.7057L15.195 38.8517L15.2778 38.9966L15.3619 39.1406L15.4476 39.2837L15.5346 39.4259L15.6229 39.567L15.7127 39.7072L15.8039 39.8466L15.8962 39.9846L15.9902 40.1219L16.0852 40.258L16.1817 40.3931L16.2795 40.5272L16.3787 40.6601L16.479 40.792L16.5807 40.9229L16.6836 41.0526L16.7877 41.1812L16.8932 41.3087L16.9998 41.4351L17.1077 41.5601L17.2167 41.6843L17.3269 41.8071L17.4383 41.9288L17.5508 42.0492L17.6646 42.1686L17.7794 42.2867L17.8954 42.4035L18.0124 42.5192L18.1307 42.6336L18.25 42.7467L18.3701 42.8586L18.4916 42.9693L18.6139 43.0785L18.7373 43.1865L18.8618 43.2933L18.9873 43.3987L19.1137 43.5029L19.2411 43.6056L19.3694 43.707L19.4987 43.8071L19.6289 43.906L19.7601 44.0033L19.8919 44.0993L20.0247 44.194L20.1585 44.2872L20.2931 44.3792L20.4287 44.4697L20.5649 44.5588L20.7019 44.6464L20.8398 44.7327L20.9783 44.8176L21.1177 44.901L21.2579 44.983L21.3986 45.0634L21.5403 45.1425L21.6824 45.2201L21.8254 45.2963L21.969 45.3711L22.1132 45.4442L22.2581 45.516L22.4037 45.5863L22.5498 45.6551L22.6964 45.7223L22.8438 45.7882L22.9915 45.8524L23.1398 45.9152L23.2887 45.9765L23.4382 46.0362L23.5879 46.0945L23.7383 46.1512L23.8892 46.2064L24.0404 46.2602L24.192 46.3122L24.3442 46.363L24.4967 46.4119L24.6495 46.4595L24.8028 46.5055L24.9563 46.5499L25.1102 46.5929L25.2644 46.6342L25.4189 46.6742L25.5737 46.7123L25.7287 46.749L25.884 46.7842L26.0396 46.8179L26.1953 46.8499L26.3512 46.8803L26.5075 46.9093L26.6636 46.9367L26.8202 46.9626L26.9767 46.9867L27.1334 47.0095L27.2902 47.0306L27.447 47.0503L27.604 47.0683L27.7609 47.0848L27.918 47.0996L28.0751 47.113L28.2322 47.1247L28.3893 47.1351L28.5463 47.1437L28.7032 47.1509L28.8603 47.1565L29.0171 47.1606L29.1738 47.163L29.3305 47.164L29.487 47.1634L29.6434 47.1613L29.7997 47.1577L29.9557 47.1525L30.1117 47.1458L30.2673 47.1375L30.4227 47.1278L30.5779 47.1165L30.733 47.1037L30.8876 47.0894L31.0421 47.0736L31.1963 47.0563L31.3502 47.0374L31.5037 47.0171L31.6568 46.9954L31.8097 46.9721L31.9622 46.9473L32.1141 46.9211L32.2658 46.8933L32.4171 46.8641L32.5679 46.8336L32.7184 46.8014L32.8682 46.7678L33.0176 46.7329L33.1665 46.6964L33.315 46.6586L33.463 46.6193L33.6104 46.5786L33.7572 46.5364L33.9036 46.4929L34.0492 46.4481L34.1943 46.4017L34.339 46.354L34.4828 46.3049L34.6262 46.2544L34.7688 46.2026L34.9108 46.1494L35.052 46.0949L35.1926 46.039L35.3327 45.9817L35.4719 45.9232L35.6103 45.8633L35.7482 45.8022L35.8851 45.7398L36.0214 45.676L36.157 45.6109L36.2914 45.5448L36.4256 45.477L36.5586 45.4083L36.691 45.3381L36.8222 45.2669L36.9528 45.1943L37.0826 45.1206L37.2113 45.0456L37.3394 44.9693L37.4665 44.892L37.5925 44.8135L37.7179 44.7337L37.842 44.653L37.9654 44.5709L38.088 44.4876L38.2094 44.4033L38.3297 44.3181L38.4494 44.2313L38.5678 44.1439L38.6853 44.0552L38.8019 43.9653L38.917 43.8746L39.0317 43.7826L39.1451 43.6896L39.2571 43.5957L39.3686 43.5004L39.4787 43.4046L39.5876 43.3078L39.6959 43.2094L39.8025 43.1107L39.9083 43.0107L40.0131 42.9098L40.1164 42.8081L40.2188 42.7053L40.3202 42.6017L40.4202 42.4971L40.519 42.3917L40.6167 42.2853L40.7134 42.1781L40.8086 42.0702L40.903 41.9612L40.9958 41.8515L41.0875 41.7411L41.1782 41.6295L41.2673 41.5177L41.3554 41.4047L41.4423 41.2911L41.5279 41.1765L41.6122 41.0614L41.6951 40.9458L41.7771 40.8289L41.8575 40.7118L41.9367 40.5938L42.0149 40.4751L42.0912 40.356L42.1668 40.236L42.2408 40.1153L42.3137 39.9942L42.385 39.8725L42.4553 39.7499L42.5239 39.6273L42.5916 39.5035L42.6577 39.3795L42.7223 39.255L42.786 39.1296L42.8479 39.0044L42.9089 38.8778L42.9681 38.7517L43.0264 38.6242L43.0829 38.497L43.1384 38.3687L43.1924 38.2405L43.2449 38.1118L43.2962 37.9825L43.3461 37.8528L43.3943 37.7231L43.4417 37.5926L43.4872 37.462L43.5315 37.3311L43.5745 37.1997L43.6161 37.068L43.6563 36.9362L43.695 36.8042L43.7324 36.6716L43.7682 36.5391L43.8029 36.4061L43.836 36.273L43.8678 36.1399L43.8982 36.0062L43.9271 35.8725L43.9548 35.7388L43.9808 35.605L44.0057 35.4709L44.029 35.3363L44.0509 35.2023L44.0715 35.0678L44.0906 34.9333L44.1083 34.7989L44.1247 34.6643L44.1397 34.5293L44.1532 34.3953L44.1655 34.2602L44.1763 34.1256L44.1855 33.9913L44.1936 33.8565L44.2001 33.7221L44.2053 33.5877L44.2091 33.453L44.2114 33.3191L44.2125 33.1847L44.2121 33.0506L44.2105 32.9166L44.2073 32.7831L44.2028 32.6493L44.197 32.5158L44.1898 32.3828L44.1812 32.2495L44.1712 32.1165L44.16 31.9842L44.1473 31.8516L44.1333 31.7197L44.1179 31.5876L44.1012 31.4561L44.0833 31.3248L44.0639 31.1936L44.0432 31.063L44.0212 30.9327L43.9979 30.8028L43.9732 30.6733L43.9472 30.5436L43.9199 30.4148L43.8914 30.2865L43.8615 30.1583L43.8303 30.0304L43.798 29.9036L43.7642 29.7764L43.7292 29.6502L43.693 29.5243L43.6555 29.3991L43.6167 29.274L43.5767 29.1495L43.5355 29.0258L43.4931 28.9026L43.4492 28.7794L43.4044 28.6574L43.3582 28.5356L43.3109 28.4147L43.2623 28.294L43.2126 28.1738L43.1617 28.0548L43.1095 27.9359L43.0563 27.8179L43.0019 27.7007L42.9463 27.5837L42.8894 27.4673L42.8317 27.3521L42.7725 27.2372L42.7125 27.1233L42.6513 27.0101L42.5888 26.8971L42.5256 26.7854L42.4609 26.6741L42.3953 26.5638L42.3285 26.4539L42.261 26.3452L42.192 26.2368L42.1223 26.1296L42.0514 26.0231L41.9796 25.9174L41.9065 25.8123L41.8326 25.7082L41.7578 25.6052L41.6818 25.5025L41.605 25.401L41.527 25.3002L41.4484 25.2006L41.3685 25.1014L41.2878 25.0034L41.2061 24.9062L41.1236 24.8097L41.0403 24.7146L40.9557 24.6199L40.8707 24.5265L40.7845 24.4338L40.6978 24.3424L40.6097 24.2515L40.5212 24.1619L40.4314 24.0728L40.3412 23.9852L40.2502 23.8984L40.1583 23.8125L40.0654 23.7276L39.9719 23.6438L39.8777 23.5611L39.7823 23.479L39.687 23.3985L39.5903 23.3185L39.4931 23.2398L39.3952 23.1622L39.2965 23.0853L39.1972 23.0098L39.0975 22.9354L38.9966 22.8618L38.895 22.7891L38.7934 22.7181L38.6905 22.6476L38.5877 22.5787L38.4839 22.5105L38.3794 22.4434L38.2743 22.3774L38.169 22.3128L38.0627 22.249L37.9562 22.1865L37.8487 22.1249L37.7414 22.0647L37.6331 22.0056L37.5243 21.9473L37.4151 21.8903L37.3056 21.8347L37.1954 21.7799L37.0847 21.7263L36.9738 21.6739L36.8627 21.6228L36.7503 21.5725L36.6385 21.5237L36.5258 21.4759L36.4127 21.4292L36.2993 21.3838L36.1859 21.3396L36.0719 21.2965L35.9572 21.2543L35.8428 21.2137L35.7277 21.174L35.6123 21.1356L35.4971 21.0983L35.3813 21.0623L35.2656 21.0274L35.1488 20.9936L35.0325 20.9612L34.9159 20.9298L34.7991 20.8997L34.6821 20.8706L34.5645 20.8428L34.4472 20.8162L34.33 20.7908L34.2122 20.7666L34.0941 20.7434L33.9767 20.7217L33.8584 20.701L33.7405 20.6815L33.622 20.6631L33.5042 20.646L33.3854 20.6299L33.2674 20.6153L33.1491 20.6017L33.0307 20.5893L32.9125 20.5781L32.794 20.568L32.676 20.5592L32.5574 20.5515L32.4393 20.545L32.3215 20.5397L32.2028 20.5354L32.0852 20.5324L31.9673 20.5307L31.8497 20.53L31.7692 20.5303L31.8302 25.6785L31.8666 25.6787L31.9342 25.6796L32.002 25.6812L32.0699 25.6834L32.1378 25.6866L32.2058 25.6903L32.2739 25.6946L32.3421 25.6998L32.4102 25.7057L32.4786 25.7122L32.5469 25.7194L32.6152 25.7273L32.6837 25.7361L32.752 25.7455L32.8204 25.7556L32.8889 25.7665L32.9573 25.7781L33.0257 25.7903L33.0941 25.8034L33.1624 25.8171L33.2307 25.8317L33.2991 25.8468L33.3674 25.8627L33.4354 25.8794L33.5036 25.8967L33.5717 25.9148L33.6396 25.9337L33.7075 25.9532L33.7752 25.9735L33.8429 25.9945L33.9104 26.0163L33.9779 26.0388L34.0451 26.062L34.1123 26.0858L34.1793 26.1105L34.2461 26.1359L34.3128 26.1619L34.3793 26.1888L34.4456 26.2163L34.5117 26.2446L34.5777 26.2736L34.6435 26.3033L34.7091 26.3337L34.7744 26.365L34.8394 26.3967L34.9043 26.4293L34.9688 26.4627L35.0332 26.4967L35.0973 26.5315L35.1611 26.5669L35.2247 26.6031L35.2879 26.6399L35.3508 26.6774L35.4135 26.7157L35.4758 26.7547L35.5379 26.7944L35.5995 26.8346L35.6609 26.8757L35.722 26.9175L35.7827 26.9599L35.8429 27.003L35.9029 27.0468L35.9625 27.0912L36.0217 27.1364L36.0805 27.1822L36.139 27.2287L36.1969 27.2759L36.2545 27.3236L36.3117 27.3722L36.3685 27.4212L36.4248 27.471L36.4807 27.5215L36.5361 27.5726L36.591 27.6243L36.6454 27.6767L36.6996 27.7297L36.753 27.7833L36.8061 27.8376L36.8587 27.8924L36.9107 27.9479L36.9622 28.0041L37.0132 28.0608L37.0638 28.1181L37.1137 28.176L37.1631 28.2345L37.212 28.2936L37.2603 28.3533L37.308 28.4136L37.3552 28.4744L37.4018 28.5359L37.4479 28.5978L37.4933 28.6604L37.5381 28.7234L37.5824 28.7871L37.626 28.8513L37.669 28.9161L37.7114 28.9812L37.7533 29.0471L37.7943 29.1134L37.8348 29.1802L37.8746 29.2476L37.9137 29.3153L37.9523 29.3837L37.9901 29.4525L38.0273 29.5218L38.0639 29.5916L38.0996 29.6618L38.1348 29.7325L38.1692 29.8037L38.2028 29.8754L38.2358 29.9474L38.2682 30.0199L38.2998 30.0929L38.3306 30.1663L38.3608 30.24L38.3901 30.3142L38.4187 30.3888L38.4467 30.4638L38.4738 30.5392L38.5001 30.615L38.5257 30.6911L38.5506 30.7676L38.5746 30.8445L38.5979 30.9217L38.6204 30.9993L38.6421 31.0773L38.6631 31.1554L38.6833 31.234L38.7025 31.3129L38.721 31.3922L38.7388 31.4715L38.7557 31.5514L38.7718 31.6315L38.7869 31.7117L38.8013 31.7924L38.815 31.8732L38.8278 31.9542L38.8397 32.0357L38.8507 32.1172L38.8609 32.199L38.8703 32.2811L38.8789 32.3633L38.8866 32.4457L38.8934 32.5283L38.8994 32.6112L38.9044 32.6942L38.9087 32.7773L38.9119 32.8607L38.9145 32.9441L38.916 33.0277L38.9168 33.1114L38.9166 33.1952L38.9156 33.2792L38.9137 33.3633L38.9108 33.4474L38.9072 33.5317L38.9025 33.616L38.8971 33.7004L38.8907 33.7848L38.8833 33.8693L38.8751 33.9539L38.8661 34.0384L38.856 34.123L38.8451 34.2077L38.8334 34.2923L38.8207 34.3769L38.8071 34.4614L38.7925 34.546L38.7771 34.6305L38.7607 34.7151L38.7435 34.7995L38.7253 34.8839L38.7062 34.9682L38.6862 35.0524L38.6652 35.1366L38.6434 35.2207L38.6208 35.3046L38.5971 35.3884L38.5725 35.472L38.547 35.5556L38.5207 35.6391L38.4934 35.7223L38.4652 35.8054L38.4362 35.8883L38.406 35.971L38.3751 36.0536L38.3433 36.1358L38.3106 36.2181L38.2769 36.2999L38.2424 36.3816L38.2069 36.463L38.1705 36.5443L38.1333 36.6251L38.0951 36.7057L38.056 36.7862L38.0162 36.8662L37.9753 36.946L37.9335 37.0255L37.8908 37.1046L37.8473 37.1834L37.803 37.2619L37.7577 37.3401L37.7115 37.4179L37.6646 37.4953L37.6166 37.5724L37.5679 37.6491L37.5183 37.7253L37.4677 37.8013L37.4164 37.8767L37.3642 37.9518L37.3112 38.0264L37.2572 38.1006L37.2025 38.1743L37.1468 38.2476L37.0904 38.3204L37.0331 38.3928L36.975 38.4647L36.9161 38.536L36.8564 38.6069L36.7958 38.6772L36.7343 38.7471L36.6722 38.8163L36.6092 38.8852L36.5453 38.9534L36.4808 39.021L36.4154 39.0882L36.3492 39.1548L36.2823 39.2207L36.2147 39.2861L36.1461 39.3509L36.0768 39.415L36.0068 39.4785L35.9361 39.5415L35.8646 39.6038L35.7923 39.6655L35.7194 39.7264L35.6456 39.7868L35.5712 39.8466L35.496 39.9055L35.4202 39.9638L35.3437 40.0215L35.2664 40.0785L35.1885 40.1347L35.1098 40.1902L35.0306 40.2452L34.9506 40.2992L34.87 40.3526L34.7887 40.4051L34.7067 40.4571L34.6241 40.5082L34.5409 40.5585L34.4571 40.608L34.3727 40.6568L34.2876 40.7048L34.2018 40.752L34.1156 40.7985L34.0287 40.8441L33.9413 40.8889L33.8533 40.9328L33.7647 40.9761L33.6756 41.0183L33.5858 41.0598L33.4957 41.1004L33.4049 41.1401L33.3137 41.1791L33.2219 41.2172L33.1296 41.2542L33.0367 41.2905L32.9434 41.326L32.8496 41.3605L32.7554 41.3942L32.6607 41.4269L32.5656 41.4587L32.47 41.4896L32.374 41.5195L32.2776 41.5485L32.1806 41.5767L32.0834 41.6039L31.9857 41.6302L31.8877 41.6554L31.7892 41.6798L31.6904 41.7032L31.5913 41.7257L31.4917 41.7471L31.3919 41.7677L31.2917 41.7872L31.1912 41.8057L31.0904 41.8233L30.9892 41.8399L30.8879 41.8555L30.7862 41.8701L30.6843 41.8837L30.582 41.8964L30.4796 41.908L30.3769 41.9185L30.274 41.9282L30.1709 41.9366L30.0675 41.9442L29.9639 41.9507L29.8602 41.9562L29.7563 41.9608L29.6523 41.9642L29.548 41.9665L29.4437 41.9678L29.3392 41.9683L29.2346 41.9676L29.1299 41.9658L29.025 41.9629L28.9202 41.9591L28.8152 41.9542L28.71 41.9482L28.6049 41.9412L28.4997 41.9332L28.3946 41.9241L28.2893 41.9138L28.1842 41.9027L28.0789 41.8902L27.9738 41.8769L27.8685 41.8624L27.7634 41.847L27.6582 41.8304L27.5532 41.8128L27.4482 41.7941L27.3434 41.7743L27.2385 41.7536L27.1338 41.7317L27.0292 41.7087L26.9248 41.6846L26.8204 41.6595L26.7161 41.6335L26.6121 41.6062L26.5083 41.5778L26.4045 41.5485L26.3012 41.5181L26.1978 41.4866L26.0947 41.454L25.9919 41.4205L25.8892 41.3858L25.7869 41.3501L25.6848 41.3133L25.5829 41.2754L25.4815 41.2365L25.3802 41.1966L25.2792 41.1555L25.1786 41.1135L25.0784 41.0704L24.9784 41.0262L24.8787 40.9811L24.7796 40.9349L24.6806 40.8876L24.5822 40.8393L24.4841 40.7899L24.3865 40.7396L24.2892 40.6882L24.1924 40.6358L24.096 40.5824L24.0002 40.528L23.9046 40.4725L23.8097 40.416L23.7152 40.3586L23.6212 40.3001L23.5277 40.2407L23.4347 40.1802L23.3422 40.1188L23.2503 40.0563L23.1591 39.9929L23.0683 39.9285L22.978 39.8632L22.8884 39.7968L22.7993 39.7296L22.711 39.6614L22.6232 39.5921L22.536 39.522L22.4494 39.451L22.3635 39.379L22.2783 39.306L22.1938 39.2321L22.1099 39.1574L22.0267 39.0817L21.9442 39.0051L21.8624 38.9276L21.7814 38.8492L21.7009 38.77L21.6214 38.6898L21.5426 38.6088L21.4645 38.5268L21.3872 38.4442L21.3107 38.3605L21.235 38.2761L21.16 38.1908L21.0859 38.1047L21.0126 38.0178L20.94 37.93L20.8684 37.8413L20.7977 37.752L20.7277 37.6619L20.6586 37.5709L20.5904 37.4792L20.5232 37.3867L20.4568 37.2934L20.3912 37.1993L20.3265 37.1046L20.2628 37.0091L20.2001 36.9128L20.1383 36.8159L20.0774 36.7183L20.0175 36.6199L19.9585 36.5208L19.9005 36.4211L19.8435 36.3206L19.7875 36.2196L19.7324 36.1178L19.6784 36.0154L19.6253 35.9123L19.5732 35.8087L19.5222 35.7045L19.4723 35.5995L19.4234 35.4941L19.3755 35.388L19.3288 35.2814L19.2829 35.1741L19.2382 35.0663L19.1946 34.9579L19.152 34.8491L19.1106 34.7396L19.0703 34.6297L19.0311 34.5193L18.9929 34.4084L18.9558 34.297L18.9199 34.185L18.8852 34.0727L18.8515 33.9599L18.8189 33.8466L18.7875 33.7328L18.7574 33.6187L18.7282 33.5042L18.7004 33.3892L18.6737 33.274L18.648 33.1582L18.6236 33.0422L18.6004 32.9257L18.5783 32.809L18.5575 32.6918L18.5378 32.5744L18.5194 32.4567L18.5021 32.3387L18.486 32.2204L18.4713 32.1018L18.4577 31.983L18.4452 31.8638L18.4341 31.7445L18.4241 31.6249L18.4154 31.5052L18.4079 31.3852L18.4016 31.2651L18.3966 31.1448L18.3927 31.0243L18.3903 30.9036L18.3891 30.7829L18.3889 30.6619L18.3902 30.5408L18.3927 30.4198L18.3964 30.2985L18.4015 30.1772L18.4077 30.0558L18.4152 29.9344L18.424 29.8129L18.4341 29.6914L18.4454 29.5699L18.4579 29.4484L18.4718 29.3269L18.487 29.2054L18.5033 29.0841L18.5211 28.9627L18.54 28.8413L18.5603 28.7201L18.5817 28.5989L18.6045 28.4778L18.6287 28.3568L18.654 28.236L18.6806 28.1153L18.7084 27.9948L18.7376 27.8745L18.768 27.7542L18.7998 27.6343L18.8328 27.5145L18.867 27.3949L18.9025 27.2755L18.9393 27.1564L18.9773 27.0375L19.0166 26.9189L19.0572 26.8007L19.0991 26.6826L19.1422 26.5649L19.1865 26.4475L19.2322 26.3305L19.2791 26.2137L19.3272 26.0973L19.3766 25.9814L19.4272 25.8658L19.4792 25.7505L19.5322 25.6357L19.5866 25.5213L19.6421 25.4074L19.699 25.2938L19.7569 25.1808L19.8162 25.0683L19.8767 24.9562L19.9384 24.8447L20.0013 24.7335L20.0654 24.6229L20.1307 24.513L20.1973 24.4035L20.2649 24.2946L20.3339 24.1863L20.404 24.0784L20.4752 23.9712L20.5476 23.8647L20.6212 23.7588L20.6959 23.6535L20.7719 23.5489L20.8489 23.4449L20.9271 23.3415L21.0064 23.239L21.0869 23.137L21.1686 23.0358L21.2513 22.9352L21.3351 22.8355L21.42 22.7363L21.5061 22.638L21.5932 22.5405L21.6814 22.4437L21.7708 22.3478L21.8612 22.2527L21.9527 22.1583L22.0451 22.0647L22.1387 21.972L22.2333 21.8801L22.3289 21.7892L22.4256 21.699L22.5232 21.6097L22.6218 21.5213L22.7215 21.4338L22.8222 21.3473L22.9238 21.2616L23.0265 21.1769L23.13 21.0932L23.2346 21.0103L23.34 20.9284L23.4465 20.8476L23.5538 20.7677L23.6621 20.6887L23.7713 20.6108L23.8814 20.5339L23.9924 20.458L24.1043 20.3831L24.217 20.3093L24.3306 20.2367L24.4451 20.1649L24.5603 20.0943L24.6765 20.0247L24.7934 19.9563L24.9112 19.8889L25.0297 19.8227L25.149 19.7575L25.2692 19.6935L25.39 19.6307L25.5116 19.5689L25.6339 19.5083L25.7571 19.4489L25.8809 19.3907L26.0054 19.3335L26.1306 19.2776L26.2564 19.2229L26.3831 19.1693L26.5103 19.117L26.6381 19.066L26.7667 19.0161L26.8958 18.9674L27.0255 18.9199L27.1559 18.8738L27.2869 18.8288L27.4184 18.7852L27.5505 18.7428L27.6831 18.7016L27.8163 18.6618L27.9499 18.6232L28.0841 18.586L28.2188 18.55L28.354 18.5152L28.4897 18.4818L28.6258 18.4497L28.7624 18.4191L28.8993 18.3896L29.0367 18.3615L29.1745 18.3348L29.2436 18.322ZM30.9371 28.2224L29.3654 28.5979L29.2731 20.8122L29.199 20.8289L29.0875 20.8552L28.9761 20.8826L28.8655 20.911L28.755 20.9404L28.6453 20.971L28.5355 21.0028L28.4268 21.0352L28.3178 21.069L28.2102 21.1035L28.1024 21.1394L27.9952 21.1762L27.8886 21.214L27.7823 21.2527L27.6771 21.2924L27.5719 21.3333L27.4673 21.375L27.3634 21.4177L27.2597 21.4616L27.1572 21.5061L27.0548 21.5519L26.9534 21.5984L26.8521 21.6461L26.7517 21.6945L26.6516 21.744L26.5526 21.7943L26.454 21.8456L26.3561 21.8978L26.2589 21.9509L26.1622 22.0049L26.0662 22.0598L25.9713 22.1155L25.8763 22.1723L25.7824 22.2297L25.6894 22.2881L25.597 22.3473L25.5051 22.4074L25.4141 22.4684L25.3238 22.5302L25.2342 22.5926L25.1456 22.6559L25.0574 22.7201L24.9701 22.7852L24.8837 22.8509L24.7979 22.9174L24.7131 22.9845L24.6291 23.0526L24.5456 23.1214L24.463 23.1911L24.3814 23.2612L24.3006 23.3323L24.2205 23.4038L24.1413 23.4762L24.0629 23.5495L23.9854 23.6232L23.9088 23.6976L23.8328 23.7728L23.758 23.8485L23.6839 23.925L23.6108 24.0019L23.5383 24.0799L23.467 24.1581L23.3965 24.237L23.3268 24.3167L23.2582 24.3966L23.1903 24.4774L23.1236 24.5584L23.0575 24.6405L22.9926 24.7227L22.9283 24.8058L22.8652 24.8894L22.803 24.9732L22.7417 25.0577L22.6814 25.1426L22.6219 25.2283L22.5634 25.3142L22.506 25.4007L22.4496 25.4875L22.3941 25.5748L22.3394 25.6627L22.2859 25.7508L22.2332 25.8397L22.1816 25.9285L22.1309 26.0181L22.0811 26.1079L22.0326 26.1981L21.9848 26.2886L21.9382 26.3796L21.8924 26.4711L21.8478 26.5624L21.804 26.6546L21.7613 26.7468L21.7197 26.8394L21.679 26.9322L21.6393 27.0255L21.6007 27.1188L21.5631 27.2126L21.5265 27.3066L21.4908 27.4008L21.4563 27.495L21.4228 27.5898L21.3902 27.6847L21.3587 27.7797L21.3281 27.8749L21.2987 27.9705L21.2702 28.0661L21.2429 28.1617L21.2164 28.2577L21.1909 28.3538L21.1667 28.45L21.1433 28.5463L21.121 28.6427L21.0997 28.7392L21.0795 28.8359L21.0603 28.9324L21.042 29.0291L21.0248 29.1261L21.0087 29.2227L20.9936 29.3196L20.9794 29.4167L20.9663 29.5133L20.9543 29.6104L20.9433 29.7071L20.9332 29.8041L20.9242 29.9012L20.9162 29.9978L20.9092 30.0947L20.9032 30.1915L20.8982 30.288L20.8942 30.3846L20.8912 30.481L20.8893 30.5775L20.8882 30.6738L20.8883 30.7699L20.8893 30.8659L20.8913 30.9619L20.8943 31.0577L20.8983 31.1532L20.9032 31.2487L20.9092 31.3439L20.9162 31.4389L20.9241 31.5338L20.9329 31.6285L20.9427 31.7231L20.9535 31.8171L20.9653 31.9113L20.9779 32.0048L20.9917 32.0985L21.0063 32.1917L21.0218 32.2847L21.0383 32.3775L21.0558 32.4698L21.0742 32.562L21.0934 32.6537L21.1138 32.7453L21.1349 32.8364L21.157 32.9273L21.1799 33.0176L21.2039 33.108L21.2286 33.1976L21.2542 33.2872L21.2808 33.3761L21.3082 33.4649L21.3366 33.5531L21.3657 33.6408L21.3959 33.7285L21.4268 33.8155L21.4586 33.9019L21.4912 33.9882L21.5247 34.074L21.5591 34.1593L21.5943 34.2441L21.6302 34.3283L21.6671 34.4123L21.7047 34.4958L21.7432 34.5787L21.7825 34.6611L21.8224 34.7429L21.8635 34.8246L21.9049 34.9053L21.9473 34.9856L21.9906 35.0655L22.0346 35.1447L22.0793 35.2236L22.1248 35.3018L22.171 35.3793L22.218 35.4565L22.2656 35.533L22.314 35.6088L22.3633 35.6842L22.413 35.7589L22.4636 35.8333L22.5147 35.9065L22.5667 35.9796L22.6193 36.0518L22.6725 36.1234L22.7267 36.1946L22.7812 36.265L22.8364 36.3347L22.8923 36.4038L22.9489 36.4724L23.0059 36.54L23.0639 36.6073L23.1223 36.6738L23.1812 36.7395L23.241 36.8047L23.301 36.8689L23.3618 36.9329L23.4232 36.9959L23.485 37.0582L23.5476 37.1198L23.6106 37.1808L23.6741 37.2411L23.7382 37.3005L23.8028 37.3593L23.868 37.4174L23.9336 37.4747L23.9998 37.5312L24.0663 37.5872L24.1334 37.6423L24.201 37.6967L24.2692 37.7503L24.3375 37.803L24.4065 37.8551L24.4759 37.9065L24.5457 37.9571L24.616 38.0069L24.6866 38.056L24.7577 38.1042L24.8291 38.1517L24.9008 38.1983L24.973 38.2443L25.0458 38.2896L25.1186 38.3338L25.1918 38.3774L25.2656 38.4202L25.3394 38.4621L25.4136 38.5033L25.4884 38.5438L25.5633 38.5833L25.6384 38.622L25.7138 38.6599L25.7898 38.6972L25.8656 38.7334L25.9421 38.769L26.0186 38.8038L26.0952 38.8376L26.1724 38.8708L26.2498 38.9031L26.3271 38.9346L26.4048 38.9652L26.4827 38.995L26.5609 39.024L26.6389 39.0522L26.7176 39.0797L26.796 39.1061L26.8747 39.1319L26.9537 39.1568L27.0327 39.181L27.1118 39.2042L27.1911 39.2267L27.2706 39.2482L27.3501 39.2691L27.4296 39.289L27.5092 39.3082L27.5888 39.3265L27.6686 39.3439L27.7485 39.3607L27.8284 39.3765L27.9083 39.3917L27.9883 39.4058L28.0683 39.4193L28.1483 39.4319L28.2284 39.4437L28.3082 39.4547L28.3882 39.4647L28.4681 39.4742L28.5482 39.4827L28.6281 39.4904L28.708 39.4973L28.7878 39.5035L28.8674 39.5088L28.9472 39.5133L29.0267 39.517L29.106 39.52L29.1857 39.522L29.2647 39.5234L29.3438 39.5239L29.4229 39.5237L29.5017 39.5227L29.5807 39.5208L29.6594 39.5182L29.7377 39.5149L29.8159 39.5107L29.8943 39.5058L29.9721 39.5001L30.0499 39.4937L30.1274 39.4864L30.2048 39.4785L30.282 39.4697L30.3588 39.4603L30.4357 39.45L30.5121 39.439L30.5882 39.4272L30.6644 39.4148L30.7401 39.4016L30.8155 39.3877L30.8907 39.373L30.9657 39.3576L31.0402 39.3415L31.1144 39.3247L31.1886 39.3071L31.2623 39.2888L31.3357 39.27L31.4088 39.2504L31.4815 39.2301L31.5542 39.2089L31.6262 39.1873L31.6976 39.1649L31.7693 39.1417L31.8403 39.118L31.9109 39.0937L31.9811 39.0686L32.0509 39.0428L32.1206 39.0164L32.1898 38.9894L32.2583 38.9617L32.3267 38.9335L32.3946 38.9044L32.4622 38.8748L32.529 38.8447L32.5958 38.8139L32.662 38.7825L32.7276 38.7505L32.793 38.7179L32.8577 38.6847L32.9222 38.6509L32.9861 38.6164L33.0495 38.5815L33.1124 38.5461L33.175 38.5099L33.237 38.4732L33.2984 38.436L33.3593 38.3983L33.4199 38.3599L33.4799 38.3212L33.5395 38.2818L33.5984 38.242L33.6569 38.2015L33.7148 38.1606L33.7721 38.1192L33.829 38.0772L33.8853 38.0348L33.9411 37.9919L33.9963 37.9485L34.0511 37.9046L34.1051 37.8604L34.1587 37.8157L34.2116 37.7704L34.264 37.7248L34.3159 37.6787L34.3672 37.632L34.4179 37.5851L34.4678 37.5378L34.5175 37.4899L34.5664 37.4417L34.6148 37.3931L34.6626 37.3442L34.7096 37.2947L34.7561 37.245L34.8022 37.1947L34.8473 37.1444L34.8922 37.0934L34.9362 37.0421L34.9796 36.9907L35.0227 36.9386L35.0647 36.8865L35.1064 36.8339L35.1475 36.7811L35.1877 36.7279L35.2275 36.6743L35.2665 36.6208L35.305 36.5665L35.3429 36.5121L35.38 36.4577L35.4165 36.4026L35.4525 36.3475L35.4876 36.2921L35.5222 36.2365L35.5562 36.1806L35.5894 36.1244L35.6222 36.0681L35.6541 36.0115L35.6854 35.9548L35.7161 35.8976L35.7461 35.8406L35.7754 35.7832L35.8042 35.7257L35.8323 35.668L35.8597 35.6099L35.8864 35.5519L35.9125 35.4937L35.9378 35.4355L35.9627 35.3768L35.9867 35.3183L36.0103 35.2593L36.0329 35.2008L36.0551 35.1413L36.0764 35.0828L36.0972 35.0234L36.1174 34.9639L36.1368 34.9048L36.1556 34.8453L36.1737 34.786L36.1913 34.726L36.208 34.6668L36.2243 34.6067L36.2397 34.5475L36.2546 34.4875L36.2688 34.4275L36.2823 34.3679L36.2951 34.3084L36.3074 34.2482L36.319 34.1886L36.3299 34.1284L36.3401 34.069L36.3498 34.0092L36.3588 33.9494L36.3671 33.8895L36.3748 33.8298L36.3818 33.7703L36.3882 33.711L36.394 33.6512L36.3992 33.5918L36.4037 33.5324L36.4075 33.4731L36.4108 33.4139L36.4133 33.3548L36.4152 33.2961L36.4166 33.2369L36.4174 33.1778L36.4176 33.1193L36.417 33.0608L36.4159 33.0025L36.4142 32.9442L36.4118 32.8857L36.4088 32.8283L36.4053 32.7697L36.4012 32.7126L36.3964 32.6552L36.3911 32.5973L36.3851 32.5402L36.3787 32.4836L36.3715 32.4262L36.3638 32.37L36.3555 32.3134L36.3468 32.2577L36.3372 32.2013L36.3273 32.1454L36.3168 32.0901L36.3058 32.0348L36.294 31.9795L36.2817 31.9248L36.2691 31.8701L36.2557 31.8158L36.2419 31.762L36.2273 31.7077L36.2126 31.6545L36.1971 31.6008L36.1811 31.548L36.1646 31.4953L36.1476 31.4429L36.13 31.3907L36.1118 31.3386L36.0934 31.2873L36.0743 31.2362L36.0547 31.1849L36.0347 31.1344L36.0141 31.0837L35.9932 31.0342L35.9715 30.9842L35.9497 30.9349L35.9272 30.8861L35.9043 30.8373L35.881 30.789L35.8571 30.741L35.8328 30.6933L35.8082 30.6461L35.7829 30.5992L35.7574 30.5527L35.7314 30.5065L35.7048 30.4607L35.6781 30.4153L35.6508 30.3702L35.623 30.3254L35.5949 30.2813L35.5664 30.2374L35.5375 30.1939L35.5082 30.1507L35.4786 30.1082L35.4484 30.0658L35.418 30.0239L35.3872 29.9824L35.356 29.9414L35.3246 29.9007L35.2926 29.8604L35.2604 29.8207L35.2278 29.7813L35.1949 29.7423L35.1617 29.7037L35.1283 29.6657L35.0943 29.628L35.0601 29.5908L35.0256 29.5538L34.9908 29.5176L34.9556 29.4817L34.9202 29.4461L34.8846 29.4112L34.8486 29.3767L34.8124 29.3426L34.7756 29.3088L34.7391 29.2757L34.702 29.2428L34.6647 29.2106L34.6271 29.1787L34.5893 29.1475L34.5513 29.1165L34.5131 29.0861L34.4747 29.0561L34.4359 29.0265L34.3971 28.9976L34.3579 28.969L34.3185 28.9409L34.2791 28.9133L34.2394 28.8861L34.1996 28.8595L34.1595 28.8333L34.1192 28.8075L34.0789 28.7823L34.0382 28.7575L33.9975 28.7332L33.9567 28.7095L33.9157 28.6862L33.8744 28.6632L33.8332 28.6409L33.7919 28.6189L33.7503 28.5975L33.7088 28.5767L33.6668 28.5561L33.6251 28.5362L33.5831 28.5168L33.5411 28.4977L33.499 28.4792L33.4566 28.461L33.4146 28.4436L33.372 28.4265L33.3295 28.4099L33.2871 28.3938L33.2445 28.3781L33.202 28.363L33.1593 28.3482L33.1166 28.3339L33.0741 28.3203L33.0312 28.3069L32.9884 28.2941L32.9459 28.2818L32.9028 28.27L32.8602 28.2587L32.8174 28.2477L32.7746 28.2372L32.7318 28.2273L32.6891 28.2178L32.6463 28.2087L32.6036 28.2002L32.5611 28.192L32.5185 28.1843L32.4757 28.1771L32.4334 28.1704L32.3906 28.1642L32.3485 28.1583L32.3059 28.1528L32.2637 28.1479L32.2217 28.1434L32.1794 28.1395L32.1374 28.1358L32.0954 28.1327L32.0535 28.1299L32.0117 28.1276L31.9699 28.1258L31.9286 28.1245L31.887 28.1234L31.8457 28.1228L31.8044 28.1227L31.7633 28.1231L31.7223 28.1238L31.6815 28.1249L31.6407 28.1265L31.6004 28.1284L31.5598 28.1309L31.5197 28.1336L31.4796 28.1367L31.4396 28.1404L31.3999 28.1444L31.3601 28.1488L31.3208 28.1535L31.2816 28.1587L31.2426 28.1643L31.2036 28.1703L31.165 28.1766L31.1264 28.1832L31.0883 28.1903L31.05 28.1978L31.0122 28.2056L30.9745 28.2138L30.9371 28.2224Z" fill="white"/>
</g>
</svg>
