<svg width="70" height="70" viewBox="0 0 70 70" fill="none" xmlns="http://www.w3.org/2000/svg">
<path d="M28.0235 35.5765C28.3391 36.9434 26.8396 37.9822 25.6731 37.253L21.695 34.7672L16.7275 42.7166C15.4302 44.7923 16.9296 47.5 19.3761 47.5H24.4531C25.1002 47.5 25.6249 48.0247 25.6249 48.6718V52.5781C25.6249 53.2253 25.1002 53.75 24.4531 53.75H19.3862C12.0294 53.75 7.54031 45.6398 11.4362 39.4062L16.3993 31.4582L12.4222 28.9731C11.2424 28.236 11.5466 26.4378 12.8987 26.1256L23.664 23.6403C24.5049 23.4461 25.3438 23.9704 25.5379 24.8112L28.0235 35.5765ZM37.6485 17.7137L41.6807 24.1664L37.7022 26.6525C36.5253 27.3876 36.8232 29.1869 38.1786 29.4999L48.9439 31.9853C49.7908 32.1805 50.6251 31.6495 50.8179 30.8144L53.3032 20.0491C53.6154 18.6971 52.1323 17.6351 50.9528 18.3725L46.9795 20.8553L42.9499 14.402C39.2857 8.53941 30.7225 8.52593 27.0499 14.402L25.2957 17.2112C24.953 17.76 25.12 18.4827 25.6688 18.8257L28.9812 20.8955C29.53 21.2385 30.2531 21.0716 30.596 20.5228L32.35 17.7159C33.5914 15.7294 36.4489 15.7944 37.6485 17.7137ZM58.5631 39.4062L55.8761 35.103C55.5333 34.5539 54.8101 34.3868 54.2611 34.7299L50.9544 36.7962C50.4055 37.1392 50.2386 37.8621 50.5815 38.411L53.2733 42.7188C54.5679 44.7902 53.0724 47.5001 50.6233 47.5001H41.2499V42.8144C41.2499 41.4264 39.5661 40.7263 38.5826 41.7097L30.7701 49.5203C30.1599 50.1304 30.1599 51.1198 30.7701 51.7299L38.5826 59.5414C39.5594 60.5183 41.2499 59.8339 41.2499 58.4364V53.75H50.6132C57.9641 53.75 62.4623 45.6448 58.5631 39.4062Z" fill="#FFF2ED"/>
</svg>
