<svg width="49" height="49" viewBox="0 0 49 49" fill="none" xmlns="http://www.w3.org/2000/svg">
<g clip-path="url(#clip0_920_1503)">
<path d="M24.5 48.5001C37.7548 48.5001 48.5 37.7549 48.5 24.5001C48.5 11.2452 37.7548 0.5 24.5 0.5C11.2452 0.5 0.5 11.2452 0.5 24.5001C0.5 37.7549 11.2452 48.5001 24.5 48.5001Z" fill="#576D7E"/>
<path d="M35.48 37.9901H15.482V11H35.48V37.9901Z" fill="#E9EDED"/>
<path d="M15.462 26.8519V31.5H19.434V24.866L15.462 26.8519Z" fill="#4BBFEB"/>
<path d="M15.47 31.5H25.985V38H15.47V31.5Z" fill="#FCD062"/>
<path d="M18.607 35.9839L20.497 34.1169L22.386 35.9839" stroke="#F9C441"/>
<path d="M25.97 31.469H35.47V37.985H25.97V31.469Z" fill="#F05542"/>
<path d="M28.646 33.9839L30.443 35.741L32.241 33.9839" stroke="#E54141"/>
<mask id="mask0_920_1503" style="mask-type:luminance" maskUnits="userSpaceOnUse" x="15" y="11" width="21" height="27">
<path d="M35.48 37.99H15.483V11H35.48V37.99Z" fill="white"/>
</mask>
<g mask="url(#mask0_920_1503)">
<path d="M15.693 26.438L19.483 24.2579L23.447 26.5129L35.36 14.823" stroke="#F05542" stroke-linecap="square"/>
</g>
<path d="M15.97 21.0001C11.421 21.0001 8.46997 17.5 8.46997 17.5C8.46997 17.5 11.421 14 15.97 14C20.519 14 23.47 17.5 23.47 17.5C23.47 17.5 20.519 21.0001 15.97 21.0001Z" fill="#373449" stroke="#373449"/>
<path d="M15.157 14.988C14.7727 15.1154 14.4237 15.3312 14.138 15.618C13.6521 16.1067 13.3793 16.7679 13.3793 17.457C13.3793 18.1462 13.6521 18.8074 14.138 19.2961C14.3781 19.5374 14.6634 19.729 14.9777 19.8597C15.2921 19.9904 15.6291 20.0577 15.9695 20.0577C16.3099 20.0577 16.647 19.9904 16.9613 19.8597C17.2756 19.729 17.561 19.5374 17.801 19.2961C18.1819 18.9138 18.4343 18.4225 18.5232 17.8903C18.6121 17.358 18.533 16.8113 18.297 16.326L15.97 18.3061L15.203 17.54" stroke="#25B39E" stroke-miterlimit="3.9" stroke-linecap="round" stroke-linejoin="round"/>
<path d="M23.559 27.1311L23.569 31.5011H19.439V24.7891L23.559 27.1311Z" fill="#25B39E"/>
<path d="M23.55 27.119V31.5001H27.977V22.7671L23.55 27.119Z" fill="#4BBFEB"/>
<path d="M27.985 22.7599V31.5001H31.99V18.808L27.985 22.7599Z" fill="#25B39E"/>
<path d="M31.984 18.811V31.501H35.5L35.484 15.416L31.984 18.811Z" fill="#4BBFEB"/>
</g>
<defs>
<clipPath id="clip0_920_1503">
<rect width="48" height="48" fill="white" transform="translate(0.5 0.5)"/>
</clipPath>
</defs>
</svg>
