<svg width="43" height="43" viewBox="0 0 43 43" fill="none" xmlns="http://www.w3.org/2000/svg">
<path d="M24.2235 24.8141C23.8625 24.5844 23.436 24.3875 23.075 24.2234L22.9766 24.1578C22.7469 24.0594 22.55 23.9609 22.3203 23.8625C22.1891 23.7969 22.0578 23.7312 21.8938 23.6656L21.8282 23.6328C21.4672 23.4688 21.1391 23.3047 20.811 23.1078C20.3188 22.8125 20.1547 22.1234 20.3844 21.4344C20.5157 21.0734 20.7453 20.6469 21.6641 20.6469C22.3532 20.6469 22.8125 20.9422 23.0094 21.5328C23.075 21.7297 23.1078 21.9594 23.1407 22.1562L23.2063 22.4844H25.6672V22.3859C25.7328 21.7297 25.5688 20.9422 25.2407 20.3516C24.7485 19.4984 23.9282 18.9734 22.7469 18.6781L22.4844 18.6453V16.9062H20.975V18.5797L20.5157 18.7109C20.1219 18.8094 19.7938 18.9406 19.4657 19.0719C18.4485 19.5969 17.7922 20.5813 17.6938 21.7625C17.5953 22.9109 18.0875 23.9937 19.0063 24.65C19.4985 25.0109 20.0235 25.2406 20.5157 25.4703C20.7453 25.5687 20.975 25.6672 21.1719 25.7656C21.336 25.8313 21.5 25.9297 21.6313 25.9953C21.9594 26.1594 22.2547 26.2906 22.55 26.4875C23.0422 26.8156 23.2391 27.5047 23.0422 28.1609C22.911 28.5547 22.6157 29.0141 21.7625 29.0141H21.5657C21.4672 29.0141 21.3688 29.0141 21.2703 29.0141C20.4828 28.9484 19.925 28.4234 19.8594 27.6359L19.7938 27.1437H17.3657V27.2422C17.1688 29.2109 18.2844 30.4578 20.7125 31.0484L20.8766 31.0812V32.6562H22.386V31.0156L22.7141 30.9828C22.9438 30.95 23.1078 30.8844 23.3047 30.8516C24.7157 30.425 25.5032 29.5391 25.7 28.2266C25.8641 26.6844 25.3391 25.5031 24.2235 24.8141Z" fill="#1D75B9"/>
<path d="M33.1156 12.4437L35.15 10.4422C35.3141 10.2781 35.2812 10.0156 35.1172 9.88435L32.3937 7.88279C32.2297 7.75154 31.9672 7.81716 31.8687 8.01404L30.5562 10.475C28.2594 9.03123 25.6344 8.11248 22.8125 7.88279V5.2906H25.1094C25.5359 5.2906 25.8641 4.96248 25.8641 4.53591V2.04216C25.8641 1.6156 25.5359 1.28748 25.1094 1.28748H21.5H17.8906C17.4641 1.28748 17.1359 1.6156 17.1359 2.04216V4.53591C17.1359 4.96248 17.4641 5.2906 17.8906 5.2906H20.1875V7.88279C17.3656 8.11248 14.7406 8.99841 12.4766 10.4422L11.1641 7.98123C11.0656 7.78435 10.8031 7.71873 10.6391 7.84998L7.91563 9.85154C7.71875 10.0156 7.71875 10.2781 7.88281 10.4422L9.91719 12.4437C6.63594 15.5281 4.60156 19.8922 4.60156 24.7812C4.60156 34.1656 12.1484 41.7125 21.5328 41.7125C30.9172 41.7125 38.4641 34.1656 38.4641 24.7812C38.4312 19.8922 36.3969 15.5281 33.1156 12.4437ZM32.6891 33.4437C32.5906 33.575 32.4922 33.6734 32.3937 33.8047L31.6719 33.1156C31.3109 32.7547 30.7203 32.7547 30.3594 33.1156C30.1953 33.2797 30.0969 33.5093 30.0969 33.7719C30.0969 34.0015 30.1953 34.264 30.3594 34.4281L31.0812 35.15C28.6859 37.2828 25.6344 38.5625 22.4188 38.7922V37.7422C22.4188 37.2172 22.025 36.8234 21.5 36.8234C20.975 36.8234 20.5813 37.2172 20.5813 37.7422V38.7922C17.3656 38.5953 14.3141 37.3156 11.9187 35.15L12.6406 34.4281C12.8047 34.264 12.9031 34.0015 12.9031 33.7719C12.9031 33.5422 12.8047 33.2797 12.6406 33.1156C12.2797 32.7547 11.6891 32.7547 11.3281 33.1156L10.6391 33.8047C10.5406 33.7062 10.4422 33.575 10.3438 33.4437C8.6375 31.2453 7.55469 28.5547 7.39062 25.6343H8.21094C8.70312 25.6343 9.12969 25.2406 9.1625 24.7484C9.12969 24.2562 8.70312 23.8625 8.21094 23.8625H7.39062C7.55469 20.9093 8.6375 18.2187 10.3438 16.0531C10.4422 15.9219 10.5406 15.8234 10.6391 15.6922L11.3281 16.3812C11.6891 16.7422 12.2797 16.7422 12.6406 16.3812C12.8047 16.2172 12.9031 15.9875 12.9031 15.725C12.9031 15.4953 12.8047 15.2328 12.6406 15.0687L11.9187 14.3469C14.3141 12.214 17.3656 10.9344 20.5813 10.7047V11.7547C20.5813 12.2797 20.975 12.6734 21.5 12.6734C22.025 12.6734 22.4188 12.2797 22.4188 11.7547V10.7047C25.6344 10.9015 28.6859 12.1812 31.0812 14.3469L30.3594 15.1343C30.1953 15.2984 30.0969 15.5609 30.0969 15.7906C30.0969 16.0203 30.1953 16.2828 30.3594 16.4468C30.7203 16.8078 31.3109 16.8078 31.6719 16.4468L32.3609 15.7578C32.4594 15.8562 32.5578 15.9875 32.6562 16.1187C34.3625 18.3172 35.4453 21.0078 35.6094 23.9281H34.7891C34.2969 23.9281 33.8703 24.3218 33.8375 24.814C33.8703 25.3062 34.2969 25.7 34.7891 25.7H35.6094C35.4453 28.5875 34.3625 31.2781 32.6891 33.4437Z" fill="#2D3E50"/>
</svg>
